<?xml version="1.0" encoding="UTF-8" standalone="no"?>
<!-- Created with Inkscape (http://www.inkscape.org/) -->

<svg
   width="272.43555mm"
   height="71.749123mm"
   viewBox="0 0 272.43555 71.74912"
   version="1.1"
   id="svg1"
   inkscape:version="1.3.2 (091e20e, 2023-11-25, custom)"
   sodipodi:docname="mul_register.svg"
   xmlns:inkscape="http://www.inkscape.org/namespaces/inkscape"
   xmlns:sodipodi="http://sodipodi.sourceforge.net/DTD/sodipodi-0.dtd"
   xmlns="http://www.w3.org/2000/svg"
   xmlns:svg="http://www.w3.org/2000/svg">
  <sodipodi:namedview
     id="namedview1"
     pagecolor="#ffffff"
     bordercolor="#000000"
     borderopacity="0.25"
     inkscape:showpageshadow="2"
     inkscape:pageopacity="0.0"
     inkscape:pagecheckerboard="0"
     inkscape:deskcolor="#d1d1d1"
     inkscape:document-units="mm"
     inkscape:zoom="1.5340488"
     inkscape:cx="477.82052"
     inkscape:cy="-6.8446322"
     inkscape:window-width="2560"
     inkscape:window-height="1057"
     inkscape:window-x="-8"
     inkscape:window-y="-8"
     inkscape:window-maximized="1"
     inkscape:current-layer="g31" />
  <defs
     id="defs1" />
  <g
     inkscape:label="Livello 1"
     inkscape:groupmode="layer"
     id="layer1"
     transform="translate(7.9337979,-60.365854)">
    <g
       transform="matrix(0.26458333,0,0,0.26458333,-32.279167,2.3812503)"
       id="g31">
      <path
         style="color:#000000;fill:#000000;stroke-miterlimit:8;-inkscape-stroke:none"
         d="m 273,232 v 61 h 154 v -61 z m 2,2 h 150 v 57 H 275 Z"
         id="rect1" />
      <path
         d="M 18.161621,-6.9287109 H 7.7055664 l -1.0498047,2.6245117 h 1.0498047 q 1.5537109,0 2.2045899,0.6088867 0.6718747,0.5878906 0.6718747,1.5537109 0,0.9448243 -0.6718747,1.55371098 Q 9.2592773,0 7.7055664,0 H 1.9106445 q -1.55371091,0 -2.20458981,-0.58789062 -0.671875,-0.60888668 -0.671875,-1.57470708 0,-0.9658203 0.69287109,-1.574707 0.6928711,-0.6088867 2.28857422,-0.5668945 L 8.7763672,-21.143066 H 5.9628906 q -1.5537109,0 -2.2255859,-0.587891 -0.6508789,-0.608887 -0.6508789,-1.574707 0,-0.96582 0.6508789,-1.553711 0.671875,-0.608887 2.2255859,-0.608887 l 9.3012694,0.021 8.566406,21.1430668 q 1.511719,0 1.994629,0.3359375 0.965821,0.6928711 0.965821,1.8266601 0,0.9448243 -0.650879,1.55371098 Q 25.489258,0 23.935547,0 H 18.140625 Q 16.586914,0 15.915039,-0.58789062 15.26416,-1.1967773 15.26416,-2.1625977 q 0,-0.9448242 0.650879,-1.5327148 0.671875,-0.6088867 2.225586,-0.6088867 h 1.049805 z m -1.784668,-4.3041991 -3.464355,-8.524414 -3.4853519,8.524414 z m 20.53418,-9.910156 v 16.8388668 h 9.280273 v -4.0732422 q 0,-1.5537109 0.587891,-2.2045896 0.608887,-0.671875 1.574707,-0.671875 0.944824,0 1.532715,0.671875 0.608886,0.6508787 0.608886,2.2045896 V 0 H 30.108398 q -1.553711,0 -2.225586,-0.58789062 -0.650878,-0.60888668 -0.650878,-1.57470708 0,-0.9448242 0.650878,-1.5327148 0.671875,-0.6088867 2.225586,-0.6088867 h 2.498536 V -21.143066 h -2.498536 q -1.553711,0 -2.225586,-0.587891 -0.650878,-0.608887 -0.650878,-1.574707 0,-0.96582 0.650878,-1.553711 0.671875,-0.608887 2.225586,-0.608887 l 9.322266,0.021 q 1.553711,0 2.20459,0.587891 0.671875,0.587891 0.671875,1.553711 0,0.96582 -0.671875,1.574707 -0.650879,0.587891 -2.20459,0.587891 z"
         id="text1"
         transform="translate(324.111,275)"
         aria-label="AL" />
      <path
         style="color:#000000;fill:#000000;stroke-miterlimit:8;-inkscape-stroke:none"
         d="m 520,232 v 61 h 154 v -61 z m 2,2 h 150 v 57 H 522 Z"
         id="rect2" />
      <path
         d="m 9.2797852,-6.7163086 q 0.8100588,0.6254883 1.2099608,1.425293 0.410156,0.7895508 0.410156,1.743164 0,1.0561524 -0.522949,1.9482422 -0.5126952,0.88183596 -1.6201171,1.39453127 -1.1074218,0.51269532 -2.4609375,0.51269532 -1.3535156,0 -2.4404296,-0.51269532 Q 2.7685547,-0.71777344 2.2456055,-1.6098633 1.7329102,-2.5019531 1.7329102,-3.5478516 q 0,-0.9536132 0.3999023,-1.743164 0.4101563,-0.7998047 1.2202148,-1.425293 -0.7075195,-0.65625 -1.0664062,-1.3945312 -0.3588867,-0.7382813 -0.3588867,-1.5585938 0,-1.6098634 1.2304687,-2.7685544 1.2304688,-1.168946 3.1582031,-1.168946 1.9277344,0 3.1582032,1.168946 1.2304686,1.158691 1.2304686,2.7685544 0,0.8305664 -0.358887,1.5688477 -0.3486324,0.7382812 -1.0664058,1.3842773 z M 8.5517578,-9.628418 q 0,-0.779297 -0.6152344,-1.322754 -0.6049804,-0.553711 -1.640625,-0.553711 -1.0458984,0 -1.6611328,0.553711 -0.6049804,0.543457 -0.6049804,1.322754 0,0.7895508 0.6049804,1.3432617 0.6152344,0.5434571 1.6611328,0.5434571 1.0356446,0 1.640625,-0.5434571 0.6152344,-0.5537109 0.6152344,-1.3432617 z m 0.2460938,6.1831055 q 0,-0.8305664 -0.7177735,-1.4970703 -0.7075195,-0.6767578 -1.7636719,-0.6767578 -1.0561523,0 -1.7739257,0.6767578 -0.7075196,0.6665039 -0.7075196,1.5175781 0,0.65625 0.6152344,1.1484375 0.6152344,0.4819336 1.8662109,0.4819336 1.2612305,0 1.866211,-0.4819336 0.6152344,-0.4921875 0.6152344,-1.1689453 z M 28.854492,-13.299316 v 4.7167965 q 0.769043,-0.5024414 1.558594,-0.7485352 0.799805,-0.2563476 1.609863,-0.2563476 2.184082,0 3.70166,1.5073242 1.517578,1.5073242 1.517578,3.6401367 0,2.0405273 -1.4458,3.4145508 -1.445801,1.36376951 -3.814453,1.36376951 -0.840821,0 -1.620118,-0.21533204 -0.779296,-0.21533203 -1.507324,-0.63574218 V 0 H 26.393555 Q 25.634766,0 25.306641,-0.28710938 24.98877,-0.58447266 24.98877,-1.0561523 q 0,-0.4614258 0.328125,-0.7485352 0.328125,-0.2973633 1.07666,-0.2973633 h 0.358886 v -9.0952152 h -0.358886 q -0.758789,0 -1.086914,-0.287109 -0.317871,-0.297363 -0.317871,-0.769043 0,-0.461426 0.317871,-0.748535 0.328125,-0.297363 1.086914,-0.297363 z m 6.285645,8.920898 q 0,-1.3022461 -0.912598,-2.2045898 -0.912598,-0.9023438 -2.235352,-0.9023438 -1.3125,0 -2.225097,0.9023438 -0.912598,0.9023437 -0.912598,2.1738281 0,1.1586914 0.820313,1.9072266 0.820312,0.7382812 2.317382,0.7382812 1.497071,0 2.317383,-0.7382812 0.830567,-0.7485352 0.830567,-1.8764649 z m 9.720703,-8.920898 v 2.225097 h -2.501953 v -2.225097 z m 0.287109,3.9887691 v 7.2084961 h 2.522461 q 0.758789,0 1.07666,0.2973633 0.328125,0.2871094 0.328125,0.7587891 0,0.46142574 -0.328125,0.75878902 Q 48.429199,0 47.67041,0 h -7.146973 q -0.758789,0 -1.086914,-0.28710938 -0.317871,-0.29736328 -0.317871,-0.76904292 0,-0.4614258 0.317871,-0.7485352 0.328125,-0.2973633 1.086914,-0.2973633 h 2.522461 v -5.1064453 h -1.691894 q -0.748535,0 -1.07666,-0.2871094 -0.328125,-0.2973632 -0.328125,-0.7690429 0,-0.4614258 0.317871,-0.7485352 0.328125,-0.2973633 1.086914,-0.2973633 z m 11.043457,2.1020508 v 4.2143555 q 0,0.6767578 0.276856,0.8920898 0.430664,0.3383789 1.538086,0.3383789 1.609863,0 2.973632,-0.6870117 0.52295,-0.2666016 0.820313,-0.2666016 0.410156,0 0.707519,0.3076172 0.307618,0.3076172 0.307618,0.7485352 0,0.4101562 -0.328125,0.70751952 -0.502442,0.48193359 -1.989258,0.89208984 -1.476563,0.39990235 -2.491699,0.39990235 -1.958496,0 -2.942871,-0.84082032 -0.974122,-0.85107419 -0.974122,-2.08154299 v -4.6245117 h -0.758789 q -0.758789,0 -1.086914,-0.2871094 -0.317871,-0.2973632 -0.317871,-0.7690429 0,-0.4614258 0.317871,-0.7485352 0.328125,-0.2973633 1.086914,-0.2973633 h 0.758789 V -11.20752 q 0,-0.758789 0.28711,-1.07666 0.297363,-0.328125 0.769043,-0.328125 0.461426,0 0.748535,0.328125 0.297363,0.317871 0.297363,1.07666 v 1.8969731 h 3.886231 q 0.758789,0 1.07666,0.2973633 0.328125,0.2871094 0.328125,0.7587891 0,0.4614258 -0.328125,0.758789 -0.317871,0.2871094 -1.07666,0.2871094 z"
         id="text2"
         transform="translate(539.139,269)"
         aria-label="8 bit" />
      <path
         d="M 8.5722656,-6.8496094 Q 8.0595703,-7.1674805 7.4956055,-7.3212891 6.9316406,-7.4853516 6.3164062,-7.4853516 q -1.2202148,0 -1.9379882,0.3999024 -0.3178711,0.1743164 -0.3178711,0.3793945 0,0.2358399 0.430664,0.4614258 0.328125,0.1640625 1.4663086,0.3178711 2.0917969,0.2871094 2.9121094,0.5742187 1.0766602,0.3793946 1.6611331,1.1279297 0.584472,0.7485352 0.584472,1.5791016 0,1.1279297 -0.994629,1.88671874 -1.4252925,1.09716797 -3.7016597,1.09716797 -0.9125976,0 -1.6918945,-0.1640625 -0.769043,-0.1538086 -1.4150391,-0.46142579 -0.1538086,0.13330079 -0.328125,0.20507813 -0.1743164,0.07177734 -0.3588867,0.07177734 -0.4921875,0 -0.7895508,-0.31787109 Q 1.5483398,-0.65625 1.5483398,-1.4150391 v -0.7075195 q 0,-0.7587891 0.2871094,-1.0766602 0.2973633,-0.328125 0.769043,-0.328125 0.3793945,0 0.6357422,0.2153321 0.2563476,0.2050781 0.3999023,0.7177734 0.4819336,0.4101563 1.1586914,0.6254883 0.6767578,0.2050781 1.5585938,0.2050781 1.4458008,0 2.2456054,-0.4511719 0.3793946,-0.2255859 0.3793946,-0.4716796 0,-0.4101563 -0.5434571,-0.6767579 Q 7.8955078,-3.6298828 6.1933594,-3.8144531 3.6606445,-4.0810547 2.8095703,-4.8398437 1.9584961,-5.5883789 1.9584961,-6.6855469 q 0,-1.1279297 0.9536133,-1.8764648 1.2919922,-1.0253906 3.383789,-1.0253906 0.7280274,0 1.3945313,0.1435546 0.6767578,0.1333008 1.2919922,0.4204102 0.1948242,-0.1435547 0.3588867,-0.215332 0.1743164,-0.071777 0.3178711,-0.071777 0.4306643,0 0.7177733,0.328125 0.28711,0.3178711 0.28711,1.0766602 v 0.5126953 q 0,0.6870117 -0.164063,0.9331055 -0.328125,0.4716797 -0.8920898,0.4716797 -0.3793946,0 -0.6665039,-0.2358399 -0.2871094,-0.2358398 -0.3691407,-0.6254883 z m 9.8950194,-2.4609375 v 1.3125 q 1.322754,-0.9536133 2.081543,-1.2714844 0.769043,-0.317871 1.435547,-0.317871 1.025391,0 1.989258,0.758789 0.65625,0.5126953 0.65625,1.0458985 0,0.4511718 -0.317871,0.7690429 -0.307617,0.3076172 -0.748535,0.3076172 -0.389649,0 -0.820313,-0.3896484 -0.430664,-0.3896485 -0.769043,-0.3896485 -0.440918,0 -1.322754,0.553711 -0.871582,0.5537109 -2.184082,1.6611328 v 3.168457 h 2.994141 q 0.758789,0 1.07666,0.2973633 0.328125,0.2871094 0.328125,0.7587891 0,0.46142574 -0.328125,0.75878902 Q 22.220215,0 21.461426,0 h -6.347168 q -0.758789,0 -1.086914,-0.28710938 -0.317871,-0.29736328 -0.317871,-0.76904292 0,-0.4614258 0.317871,-0.7485352 0.328125,-0.2973633 1.086914,-0.2973633 h 1.250976 v -5.1064453 h -0.758789 q -0.758789,0 -1.086914,-0.2871094 -0.317871,-0.2973632 -0.317871,-0.7690429 0,-0.4614258 0.317871,-0.7485352 0.328125,-0.2973633 1.086914,-0.2973633 z m 16.313965,0.3793946 q 0.379395,-0.3588868 0.779297,-0.3588868 0.451172,0 0.738281,0.328125 0.297363,0.3178711 0.297363,1.0664063 v 1.3535156 q 0,0.7587891 -0.297363,1.0766602 -0.287109,0.3178711 -0.758789,0.3178711 -0.430664,0 -0.728027,-0.2460938 -0.215332,-0.1845703 -0.338379,-0.7485351 -0.123047,-0.5742188 -0.594727,-0.8510743 -0.830566,-0.4921875 -2.122558,-0.4921875 -1.486817,0 -2.389161,0.8715821 -0.892089,0.871582 -0.892089,2.2045898 0,1.2304688 0.861328,1.9482422 0.861328,0.7075195 2.86084,0.7075195 1.3125,0 2.143066,-0.2666015 0.492188,-0.1640625 0.933105,-0.553711 0.440918,-0.3999023 0.799805,-0.3999023 0.430664,0 0.738281,0.3178711 0.317872,0.3178711 0.317872,0.7485351 0,0.6972657 -0.953614,1.32275394 -1.415039,0.93310547 -4.142578,0.93310547 -2.450683,0 -3.814453,-1.01513672 -1.845703,-1.36376949 -1.845703,-3.73242189 0,-2.2456054 1.49707,-3.711914 1.49707,-1.4765625 3.906738,-1.4765625 0.871582,0 1.620118,0.1640625 0.748535,0.1640625 1.384277,0.4921875 z"
         id="text3"
         transform="translate(616.139,269)"
         aria-label="src" />
      <path
         d="m 17.510742,-12.261719 9.427246,9.5322268 -2.099609,2.09960939 L 15.432129,-10.225098 5.7319336,-0.71386719 3.7792969,-2.6875 l 9.5952151,-9.574219 -9.5532229,-9.427246 2.0996093,-2.099609 9.5112306,9.490234 9.51123,-9.490234 1.973633,1.952637 z"
         id="text4"
         transform="translate(458.014,278)"
         aria-label="×" />
      <path
         d="m 3.128418,-15.243164 v -2.792481 h 25.867187 v 2.792481 z m 0,8.7133788 v -2.7924804 h 25.867187 v 2.7924804 z m 26.749023,-5.7529298 z"
         id="text5"
         transform="translate(707.569,277)"
         aria-label="=" />
      <path
         style="color:#000000;fill:#000000;stroke-miterlimit:8;-inkscape-stroke:none"
         d="m 767,231 v 62 h 154 v -62 z m 2,2 h 150 v 58 H 769 Z"
         id="rect5" />
      <path
         d="M 18.161621,-6.9287109 H 7.7055664 l -1.0498047,2.6245117 h 1.0498047 q 1.5537109,0 2.2045899,0.6088867 0.6718747,0.5878906 0.6718747,1.5537109 0,0.9448243 -0.6718747,1.55371098 Q 9.2592773,0 7.7055664,0 H 1.9106445 q -1.55371091,0 -2.20458981,-0.58789062 -0.671875,-0.60888668 -0.671875,-1.57470708 0,-0.9658203 0.69287109,-1.574707 0.6928711,-0.6088867 2.28857422,-0.5668945 L 8.7763672,-21.143066 H 5.9628906 q -1.5537109,0 -2.2255859,-0.587891 -0.6508789,-0.608887 -0.6508789,-1.574707 0,-0.96582 0.6508789,-1.553711 0.671875,-0.608887 2.2255859,-0.608887 l 9.3012694,0.021 8.566406,21.1430668 q 1.511719,0 1.994629,0.3359375 0.965821,0.6928711 0.965821,1.8266601 0,0.9448243 -0.650879,1.55371098 Q 25.489258,0 23.935547,0 H 18.140625 Q 16.586914,0 15.915039,-0.58789062 15.26416,-1.1967773 15.26416,-2.1625977 q 0,-0.9448242 0.650879,-1.5327148 0.671875,-0.6088867 2.225586,-0.6088867 h 1.049805 z m -1.784668,-4.3041991 -3.464355,-8.524414 -3.4853519,8.524414 z m 27.042969,0.692871 h -9.196289 v 6.2358398 h 0.671875 q 1.553711,0 2.20459,0.6088867 0.671875,0.5878906 0.671875,1.5537109 0,0.9448243 -0.671875,1.55371098 Q 36.449219,0 34.895508,0 h -5.27002 q -1.553711,0 -2.225586,-0.58789062 -0.650879,-0.60888668 -0.650879,-1.57470708 0,-1.1757812 1.028809,-1.8266601 0.503906,-0.3359375 2.141602,-0.3149414 V -21.143066 q -1.133789,-0.104981 -1.72168,-0.692871 -0.566895,-0.587891 -0.566895,-1.469727 0,-0.96582 0.650879,-1.553711 0.671875,-0.608887 2.225586,-0.608887 l 4.388184,0.021 q 1.553711,0 2.20459,0.587891 0.671875,0.587891 0.671875,1.553711 0,0.96582 -0.671875,1.574707 -0.650879,0.587891 -2.20459,0.587891 h -0.671875 v 6.298828 h 9.196289 v -6.298828 h -0.671875 q -1.553711,0 -2.225586,-0.587891 -0.650879,-0.608887 -0.650879,-1.574707 0,-0.96582 0.650879,-1.553711 0.671875,-0.608887 2.225586,-0.608887 l 4.388183,0.021 q 1.553711,0 2.20459,0.587891 0.671875,0.587891 0.671875,1.553711 0,0.881836 -0.58789,1.469727 -0.566895,0.58789 -1.700684,0.692871 v 16.8388668 q 1.658691,0 2.141602,0.3149414 1.028808,0.6508789 1.028808,1.8476562 0,0.9448243 -0.671875,1.55371098 Q 49.571777,0 48.018066,0 h -5.270019 q -1.553711,0 -2.225586,-0.58789062 -0.650879,-0.60888668 -0.650879,-1.57470708 0,-0.9448242 0.671875,-1.5327148 0.671875,-0.6088867 2.20459,-0.6088867 h 0.671875 z"
         id="text6"
         transform="translate(818.334,274)"
         aria-label="AH" />
      <path
         style="color:#000000;fill:#000000;stroke-miterlimit:8;-inkscape-stroke:none"
         d="m 951,231 v 62 h 154 v -62 z m 2,2 h 150 v 58 H 953 Z"
         id="rect6" />
      <path
         d="M 18.161621,-6.9287109 H 7.7055664 l -1.0498047,2.6245117 h 1.0498047 q 1.5537109,0 2.2045899,0.6088867 0.6718747,0.5878906 0.6718747,1.5537109 0,0.9448243 -0.6718747,1.55371098 Q 9.2592773,0 7.7055664,0 H 1.9106445 q -1.55371091,0 -2.20458981,-0.58789062 -0.671875,-0.60888668 -0.671875,-1.57470708 0,-0.9658203 0.69287109,-1.574707 0.6928711,-0.6088867 2.28857422,-0.5668945 L 8.7763672,-21.143066 H 5.9628906 q -1.5537109,0 -2.2255859,-0.587891 -0.6508789,-0.608887 -0.6508789,-1.574707 0,-0.96582 0.6508789,-1.553711 0.671875,-0.608887 2.2255859,-0.608887 l 9.3012694,0.021 8.566406,21.1430668 q 1.511719,0 1.994629,0.3359375 0.965821,0.6928711 0.965821,1.8266601 0,0.9448243 -0.650879,1.55371098 Q 25.489258,0 23.935547,0 H 18.140625 Q 16.586914,0 15.915039,-0.58789062 15.26416,-1.1967773 15.26416,-2.1625977 q 0,-0.9448242 0.650879,-1.5327148 0.671875,-0.6088867 2.225586,-0.6088867 h 1.049805 z m -1.784668,-4.3041991 -3.464355,-8.524414 -3.4853519,8.524414 z m 20.53418,-9.910156 v 16.8388668 h 9.280273 v -4.0732422 q 0,-1.5537109 0.587891,-2.2045896 0.608887,-0.671875 1.574707,-0.671875 0.944824,0 1.532715,0.671875 0.608886,0.6508787 0.608886,2.2045896 V 0 H 30.108398 q -1.553711,0 -2.225586,-0.58789062 -0.650878,-0.60888668 -0.650878,-1.57470708 0,-0.9448242 0.650878,-1.5327148 0.671875,-0.6088867 2.225586,-0.6088867 h 2.498536 V -21.143066 h -2.498536 q -1.553711,0 -2.225586,-0.587891 -0.650878,-0.608887 -0.650878,-1.574707 0,-0.96582 0.650878,-1.553711 0.671875,-0.608887 2.225586,-0.608887 l 9.322266,0.021 q 1.553711,0 2.20459,0.587891 0.671875,0.587891 0.671875,1.553711 0,0.96582 -0.671875,1.574707 -0.650879,0.587891 -2.20459,0.587891 z"
         id="text7"
         transform="translate(1002.33,274)"
         aria-label="AL" />
      <path
         style="color:#000000;fill:#000000;stroke-miterlimit:8;-inkscape-stroke:none"
         d="m 273,319 v 62 h 154 v -62 z m 2,2 h 150 v 58 H 275 Z"
         id="rect7" />
      <path
         d="M 18.161621,-6.9287109 H 7.7055664 l -1.0498047,2.6245117 h 1.0498047 q 1.5537109,0 2.2045899,0.6088867 0.6718747,0.5878906 0.6718747,1.5537109 0,0.9448243 -0.6718747,1.55371098 Q 9.2592773,0 7.7055664,0 H 1.9106445 q -1.55371091,0 -2.20458981,-0.58789062 -0.671875,-0.60888668 -0.671875,-1.57470708 0,-0.9658203 0.69287109,-1.574707 0.6928711,-0.6088867 2.28857422,-0.5668945 L 8.7763672,-21.143066 H 5.9628906 q -1.5537109,0 -2.2255859,-0.587891 -0.6508789,-0.608887 -0.6508789,-1.574707 0,-0.96582 0.6508789,-1.553711 0.671875,-0.608887 2.2255859,-0.608887 l 9.3012694,0.021 8.566406,21.1430668 q 1.511719,0 1.994629,0.3359375 0.965821,0.6928711 0.965821,1.8266601 0,0.9448243 -0.650879,1.55371098 Q 25.489258,0 23.935547,0 H 18.140625 Q 16.586914,0 15.915039,-0.58789062 15.26416,-1.1967773 15.26416,-2.1625977 q 0,-0.9448242 0.650879,-1.5327148 0.671875,-0.6088867 2.225586,-0.6088867 h 1.049805 z m -1.784668,-4.3041991 -3.464355,-8.524414 -3.4853519,8.524414 z m 25.15332,-1.742676 7.180664,8.6713868 q 1.280762,0.020996 1.910645,0.6298828 0.650879,0.5878906 0.650879,1.5327148 0,0.9448243 -0.671875,1.55371098 Q 49.949707,0 48.395996,0 H 43.545898 Q 42.013184,0 41.341309,-0.58789062 40.69043,-1.1967773 40.69043,-2.1625977 q 0,-0.902832 0.608886,-1.4907226 0.608887,-0.6088867 1.826661,-0.6508789 l -4.325196,-5.3330078 -4.367187,5.3330078 q 1.196777,0.041992 1.805664,0.6508789 0.608887,0.6088867 0.608887,1.5117187 0,0.9448243 -0.671875,1.55371098 Q 35.525391,0 33.97168,0 h -4.829102 q -1.553711,0 -2.225586,-0.58789062 -0.650879,-0.60888668 -0.650879,-1.57470708 0,-0.9238281 0.650879,-1.5327148 0.650879,-0.6088867 1.910645,-0.6088867 l 7.138672,-8.7133788 -6.802735,-8.125488 q -1.259765,-0.04199 -1.889648,-0.629883 -0.608887,-0.608887 -0.608887,-1.532715 0,-0.96582 0.650879,-1.553711 0.671875,-0.608887 2.225586,-0.608887 l 3.968262,0.021 q 1.553711,0 2.204589,0.587891 0.671875,0.587891 0.671875,1.553711 0,0.713867 -0.419921,1.301758 -0.27295,0.356933 -1.217774,0.86084 l 4.010254,4.808105 3.92627,-4.808105 q -0.944825,-0.503907 -1.217774,-0.86084 -0.419922,-0.587891 -0.419922,-1.301758 0,-0.944824 0.650879,-1.553711 0.671875,-0.608887 2.225586,-0.608887 l 3.947266,0.021 q 1.553711,0 2.20459,0.587891 0.671875,0.587891 0.671875,1.553711 0,0.923828 -0.650879,1.532715 -0.629883,0.608887 -1.847657,0.629883 z"
         id="text8"
         transform="translate(324.111,362)"
         aria-label="AX" />
      <path
         style="color:#000000;fill:#000000;stroke-miterlimit:8;-inkscape-stroke:none"
         d="m 520,319 v 62 h 154 v -62 z m 2,2 h 150 v 58 H 522 Z"
         id="rect8" />
      <path
         d="m 7.3725586,-13.606934 v 11.5048832 h 2.1225586 q 0.7587888,0 1.0766598,0.2973633 0.328125,0.2871094 0.328125,0.7587891 0,0.46142574 -0.328125,0.75878902 Q 10.253906,0 9.4951172,0 H 3.1479492 Q 2.3891602,0 2.0610352,-0.28710938 1.7431641,-0.58447266 1.7431641,-1.0561523 q 0,-0.4614258 0.3178711,-0.7485352 0.328125,-0.2973633 1.086914,-0.2973633 h 2.1225586 v -8.7670902 l -1.8764648,0.492188 q -0.4511719,0.123047 -0.6767578,0.123047 -0.3999024,0 -0.6972657,-0.317871 -0.2871093,-0.317871 -0.2871093,-0.779297 0,-0.42041 0.215332,-0.65625 0.215332,-0.246094 0.9023437,-0.430664 z m 9.5566404,6.4291996 q 0.758789,-0.6357422 1.445801,-0.9228515 0.687012,-0.2973633 1.466309,-0.2973633 1.650878,0 2.891601,1.3125 1.240723,1.3125 1.240723,3.2915039 0,1.8354492 -1.158692,2.9736328 -1.148437,1.12792969 -3.127441,1.12792969 -1.650879,0 -2.717285,-0.76904297 -1.066406,-0.76904292 -1.609863,-2.36865232 -0.543457,-1.5996094 -0.543457,-3.5683594 0,-2.3583984 1.07666,-3.9169925 1.07666,-1.568847 2.532715,-2.430175 1.456054,-0.861329 3.076171,-0.861329 1.281739,0 1.989258,0.502442 0.461426,0.338379 0.461426,0.861328 0,0.461426 -0.307617,0.779297 -0.307617,0.307617 -0.738281,0.307617 -0.246094,0 -0.70752,-0.246094 -0.276855,-0.143554 -0.533203,-0.143554 -1.004883,0 -2.081543,0.574218 -1.07666,0.563965 -1.866211,1.7431644 -0.543457,0.8203125 -0.789551,2.0507812 z m 0.307617,3.2504883 q 0.328125,1.2304688 0.881836,1.6816406 0.563965,0.4511719 1.59961,0.4511719 1.035644,0 1.589355,-0.543457 0.563965,-0.5434571 0.563965,-1.4765625 0,-1.0664063 -0.645996,-1.7739258 -0.635742,-0.7075195 -1.435547,-0.7075195 -0.635742,0 -1.363769,0.6254882 -0.717774,0.6254883 -1.189454,1.7431641 z m 24.219727,-9.3720699 v 4.7167965 q 0.769043,-0.5024414 1.558594,-0.7485352 0.799804,-0.2563476 1.609863,-0.2563476 2.184082,0 3.70166,1.5073242 1.517578,1.5073242 1.517578,3.6401367 0,2.0405273 -1.445801,3.4145508 -1.4458,1.36376951 -3.814453,1.36376951 -0.84082,0 -1.620117,-0.21533204 -0.779297,-0.21533203 -1.507324,-0.63574218 V 0 H 38.995605 Q 38.236816,0 37.908691,-0.28710938 37.59082,-0.58447266 37.59082,-1.0561523 q 0,-0.4614258 0.328125,-0.7485352 0.328125,-0.2973633 1.07666,-0.2973633 h 0.358887 v -9.0952152 h -0.358887 q -0.758789,0 -1.086914,-0.287109 -0.317871,-0.297363 -0.317871,-0.769043 0,-0.461426 0.317871,-0.748535 0.328125,-0.297363 1.086914,-0.297363 z m 6.285644,8.920898 q 0,-1.3022461 -0.912597,-2.2045898 -0.912598,-0.9023438 -2.235352,-0.9023438 -1.3125,0 -2.225097,0.9023438 -0.912598,0.9023437 -0.912598,2.1738281 0,1.1586914 0.820312,1.9072266 0.820313,0.7382812 2.317383,0.7382812 1.497071,0 2.317383,-0.7382812 0.830566,-0.7485352 0.830566,-1.8764649 z m 9.720704,-8.920898 v 2.225097 h -2.501954 v -2.225097 z M 57.75,-9.3105469 v 7.2084961 h 2.522461 q 0.758789,0 1.07666,0.2973633 0.328125,0.2871094 0.328125,0.7587891 0,0.46142574 -0.328125,0.75878902 Q 61.03125,0 60.272461,0 h -7.146973 q -0.758789,0 -1.086914,-0.28710938 -0.317871,-0.29736328 -0.317871,-0.76904292 0,-0.4614258 0.317871,-0.7485352 0.328125,-0.2973633 1.086914,-0.2973633 h 2.522461 v -5.1064453 h -1.691894 q -0.748535,0 -1.07666,-0.2871094 -0.328125,-0.2973632 -0.328125,-0.7690429 0,-0.4614258 0.317871,-0.7485352 0.328125,-0.2973633 1.086914,-0.2973633 z m 11.043457,2.1020508 v 4.2143555 q 0,0.6767578 0.276855,0.8920898 0.430665,0.3383789 1.538086,0.3383789 1.609864,0 2.973633,-0.6870117 0.522949,-0.2666016 0.820313,-0.2666016 0.410156,0 0.707519,0.3076172 0.307617,0.3076172 0.307617,0.7485352 0,0.4101562 -0.328125,0.70751952 -0.502441,0.48193359 -1.989257,0.89208984 -1.476563,0.39990235 -2.4917,0.39990235 -1.958496,0 -2.942871,-0.84082032 -0.974121,-0.85107419 -0.974121,-2.08154299 v -4.6245117 h -0.758789 q -0.758789,0 -1.086914,-0.2871094 -0.317871,-0.2973632 -0.317871,-0.7690429 0,-0.4614258 0.317871,-0.7485352 0.328125,-0.2973633 1.086914,-0.2973633 h 0.758789 V -11.20752 q 0,-0.758789 0.28711,-1.07666 0.297363,-0.328125 0.769043,-0.328125 0.461425,0 0.748535,0.328125 0.297363,0.317871 0.297363,1.07666 v 1.8969731 h 3.88623 q 0.75879,0 1.076661,0.2973633 0.328125,0.2871094 0.328125,0.7587891 0,0.4614258 -0.328125,0.758789 -0.317871,0.2871094 -1.076661,0.2871094 z"
         id="text9"
         transform="translate(532.722,356)"
         aria-label="16 bit" />
      <path
         d="M 8.5722656,-6.8496094 Q 8.0595703,-7.1674805 7.4956055,-7.3212891 6.9316406,-7.4853516 6.3164062,-7.4853516 q -1.2202148,0 -1.9379882,0.3999024 -0.3178711,0.1743164 -0.3178711,0.3793945 0,0.2358399 0.430664,0.4614258 0.328125,0.1640625 1.4663086,0.3178711 2.0917969,0.2871094 2.9121094,0.5742187 1.0766602,0.3793946 1.6611331,1.1279297 0.584472,0.7485352 0.584472,1.5791016 0,1.1279297 -0.994629,1.88671874 -1.4252925,1.09716797 -3.7016597,1.09716797 -0.9125976,0 -1.6918945,-0.1640625 -0.769043,-0.1538086 -1.4150391,-0.46142579 -0.1538086,0.13330079 -0.328125,0.20507813 -0.1743164,0.07177734 -0.3588867,0.07177734 -0.4921875,0 -0.7895508,-0.31787109 Q 1.5483398,-0.65625 1.5483398,-1.4150391 v -0.7075195 q 0,-0.7587891 0.2871094,-1.0766602 0.2973633,-0.328125 0.769043,-0.328125 0.3793945,0 0.6357422,0.2153321 0.2563476,0.2050781 0.3999023,0.7177734 0.4819336,0.4101563 1.1586914,0.6254883 0.6767578,0.2050781 1.5585938,0.2050781 1.4458008,0 2.2456054,-0.4511719 0.3793946,-0.2255859 0.3793946,-0.4716796 0,-0.4101563 -0.5434571,-0.6767579 Q 7.8955078,-3.6298828 6.1933594,-3.8144531 3.6606445,-4.0810547 2.8095703,-4.8398437 1.9584961,-5.5883789 1.9584961,-6.6855469 q 0,-1.1279297 0.9536133,-1.8764648 1.2919922,-1.0253906 3.383789,-1.0253906 0.7280274,0 1.3945313,0.1435546 0.6767578,0.1333008 1.2919922,0.4204102 0.1948242,-0.1435547 0.3588867,-0.215332 0.1743164,-0.071777 0.3178711,-0.071777 0.4306643,0 0.7177733,0.328125 0.28711,0.3178711 0.28711,1.0766602 v 0.5126953 q 0,0.6870117 -0.164063,0.9331055 -0.328125,0.4716797 -0.8920898,0.4716797 -0.3793946,0 -0.6665039,-0.2358399 -0.2871094,-0.2358398 -0.3691407,-0.6254883 z m 9.8950194,-2.4609375 v 1.3125 q 1.322754,-0.9536133 2.081543,-1.2714844 0.769043,-0.317871 1.435547,-0.317871 1.025391,0 1.989258,0.758789 0.65625,0.5126953 0.65625,1.0458985 0,0.4511718 -0.317871,0.7690429 -0.307617,0.3076172 -0.748535,0.3076172 -0.389649,0 -0.820313,-0.3896484 -0.430664,-0.3896485 -0.769043,-0.3896485 -0.440918,0 -1.322754,0.553711 -0.871582,0.5537109 -2.184082,1.6611328 v 3.168457 h 2.994141 q 0.758789,0 1.07666,0.2973633 0.328125,0.2871094 0.328125,0.7587891 0,0.46142574 -0.328125,0.75878902 Q 22.220215,0 21.461426,0 h -6.347168 q -0.758789,0 -1.086914,-0.28710938 -0.317871,-0.29736328 -0.317871,-0.76904292 0,-0.4614258 0.317871,-0.7485352 0.328125,-0.2973633 1.086914,-0.2973633 h 1.250976 v -5.1064453 h -0.758789 q -0.758789,0 -1.086914,-0.2871094 -0.317871,-0.2973632 -0.317871,-0.7690429 0,-0.4614258 0.317871,-0.7485352 0.328125,-0.2973633 1.086914,-0.2973633 z m 16.313965,0.3793946 q 0.379395,-0.3588868 0.779297,-0.3588868 0.451172,0 0.738281,0.328125 0.297363,0.3178711 0.297363,1.0664063 v 1.3535156 q 0,0.7587891 -0.297363,1.0766602 -0.287109,0.3178711 -0.758789,0.3178711 -0.430664,0 -0.728027,-0.2460938 -0.215332,-0.1845703 -0.338379,-0.7485351 -0.123047,-0.5742188 -0.594727,-0.8510743 -0.830566,-0.4921875 -2.122558,-0.4921875 -1.486817,0 -2.389161,0.8715821 -0.892089,0.871582 -0.892089,2.2045898 0,1.2304688 0.861328,1.9482422 0.861328,0.7075195 2.86084,0.7075195 1.3125,0 2.143066,-0.2666015 0.492188,-0.1640625 0.933105,-0.553711 0.440918,-0.3999023 0.799805,-0.3999023 0.430664,0 0.738281,0.3178711 0.317872,0.3178711 0.317872,0.7485351 0,0.6972657 -0.953614,1.32275394 -1.415039,0.93310547 -4.142578,0.93310547 -2.450683,0 -3.814453,-1.01513672 -1.845703,-1.36376949 -1.845703,-3.73242189 0,-2.2456054 1.49707,-3.711914 1.49707,-1.4765625 3.906738,-1.4765625 0.871582,0 1.620118,0.1640625 0.748535,0.1640625 1.384277,0.4921875 z"
         id="text10"
         transform="translate(622.556,356)"
         aria-label="src" />
      <path
         d="m 17.510742,-12.261719 9.427246,9.5322268 -2.099609,2.09960939 L 15.432129,-10.225098 5.7319336,-0.71386719 3.7792969,-2.6875 l 9.5952151,-9.574219 -9.5532229,-9.427246 2.0996093,-2.099609 9.5112306,9.490234 9.51123,-9.490234 1.973633,1.952637 z"
         id="text11"
         transform="translate(458.014,365)"
         aria-label="×" />
      <path
         d="m 3.128418,-15.243164 v -2.792481 h 25.867187 v 2.792481 z m 0,8.7133788 v -2.7924804 h 25.867187 v 2.7924804 z m 26.749023,-5.7529298 z"
         id="text12"
         transform="translate(707.569,364)"
         aria-label="=" />
      <path
         style="color:#000000;fill:#000000;stroke-miterlimit:8;-inkscape-stroke:none"
         d="m 767,318 v 62 h 154 v -62 z m 2,2 h 150 v 58 H 769 Z"
         id="rect12" />
      <path
         d="M 3.2753906,-4.3041992 V -21.143066 q -1.3647461,-0.021 -2.015625,-0.608887 -0.65087888,-0.608887 -0.65087888,-1.553711 0,-0.96582 0.65087888,-1.553711 0.671875,-0.608887 2.225586,-0.608887 l 9.0073244,0.021 q 2.099609,0 4.094238,0.776856 2.015625,0.776855 3.233398,1.973633 0.923829,0.902832 1.910645,2.477539 1.007813,1.574707 1.511719,3.128418 0.503906,1.553711 0.503906,3.800293 v 2.057617 q 0,2.729492 -0.923828,4.8500975 -0.923828,2.0996094 -2.435547,3.4433594 -1.490723,1.3227539 -2.813477,1.95263669 Q 15.474121,0 12.135742,0 H 3.4853516 Q 1.9316406,0 1.2597656,-0.58789062 0.60888672,-1.1967773 0.60888672,-2.1625977 q 0,-0.9448242 0.65087888,-1.5537109 0.671875,-0.6088867 2.015625,-0.5878906 z m 4.3041992,0 h 4.5771482 q 2.561524,0 3.863282,-0.7348633 1.700683,-0.9658203 2.561523,-2.456543 0.86084,-1.4907226 0.86084,-3.8632815 v -2.036621 q 0,-2.036621 -0.776856,-3.569336 -1.217773,-2.393554 -2.750488,-3.27539 -1.511719,-0.902832 -3.800293,-0.902832 H 7.5795898 Z"
         id="text13"
         transform="translate(818.334,361)"
         aria-label="D" />
      <path
         d="m 15.726074,-12.975586 7.180664,8.6713868 q 1.280762,0.020996 1.910645,0.6298828 0.650879,0.5878906 0.650879,1.5327148 0,0.9448243 -0.671875,1.55371098 Q 24.145508,0 22.591797,0 H 17.741699 Q 16.208984,0 15.537109,-0.58789062 14.88623,-1.1967773 14.88623,-2.1625977 q 0,-0.902832 0.608887,-1.4907226 0.608887,-0.6088867 1.82666,-0.6508789 L 12.996582,-9.637207 8.6293945,-4.3041992 q 1.1967774,0.041992 1.8056645,0.6508789 0.608886,0.6088867 0.608886,1.5117187 0,0.9448243 -0.671875,1.55371098 Q 9.7211914,0 8.1674805,0 H 3.3383789 Q 1.784668,0 1.112793,-0.58789062 0.46191406,-1.1967773 0.46191406,-2.1625977 q 0,-0.9238281 0.65087894,-1.5327148 0.6508789,-0.6088867 1.9106445,-0.6088867 l 7.1386715,-8.7133788 -6.802734,-8.125488 q -1.2597656,-0.04199 -1.8896484,-0.629883 -0.60888676,-0.608887 -0.60888676,-1.532715 0,-0.96582 0.65087886,-1.553711 0.6718751,-0.608887 2.225586,-0.608887 l 3.9682617,0.021 q 1.5537109,0 2.2045899,0.587891 0.6718747,0.587891 0.6718747,1.553711 0,0.713867 -0.419922,1.301758 -0.2729488,0.356933 -1.2177731,0.86084 l 4.0102541,4.808105 3.926269,-4.808105 q -0.944824,-0.503907 -1.217773,-0.86084 -0.419922,-0.587891 -0.419922,-1.301758 0,-0.944824 0.650879,-1.553711 0.671875,-0.608887 2.225586,-0.608887 l 3.947266,0.021 q 1.55371,0 2.204589,0.587891 0.671875,0.587891 0.671875,1.553711 0,0.923828 -0.650879,1.532715 -0.629882,0.608887 -1.847656,0.629883 z"
         id="text14"
         transform="translate(844,361)"
         aria-label="X" />
      <path
         style="color:#000000;fill:#000000;stroke-miterlimit:8;-inkscape-stroke:none"
         d="m 951,318 v 62 h 154 v -62 z m 2,2 h 150 v 58 H 953 Z"
         id="rect14" />
      <path
         d="M 18.161621,-6.9287109 H 7.7055664 l -1.0498047,2.6245117 h 1.0498047 q 1.5537109,0 2.2045899,0.6088867 0.6718747,0.5878906 0.6718747,1.5537109 0,0.9448243 -0.6718747,1.55371098 Q 9.2592773,0 7.7055664,0 H 1.9106445 q -1.55371091,0 -2.20458981,-0.58789062 -0.671875,-0.60888668 -0.671875,-1.57470708 0,-0.9658203 0.69287109,-1.574707 0.6928711,-0.6088867 2.28857422,-0.5668945 L 8.7763672,-21.143066 H 5.9628906 q -1.5537109,0 -2.2255859,-0.587891 -0.6508789,-0.608887 -0.6508789,-1.574707 0,-0.96582 0.6508789,-1.553711 0.671875,-0.608887 2.2255859,-0.608887 l 9.3012694,0.021 8.566406,21.1430668 q 1.511719,0 1.994629,0.3359375 0.965821,0.6928711 0.965821,1.8266601 0,0.9448243 -0.650879,1.55371098 Q 25.489258,0 23.935547,0 H 18.140625 Q 16.586914,0 15.915039,-0.58789062 15.26416,-1.1967773 15.26416,-2.1625977 q 0,-0.9448242 0.650879,-1.5327148 0.671875,-0.6088867 2.225586,-0.6088867 h 1.049805 z m -1.784668,-4.3041991 -3.464355,-8.524414 -3.4853519,8.524414 z m 25.15332,-1.742676 7.180664,8.6713868 q 1.280762,0.020996 1.910645,0.6298828 0.650879,0.5878906 0.650879,1.5327148 0,0.9448243 -0.671875,1.55371098 Q 49.949707,0 48.395996,0 H 43.545898 Q 42.013184,0 41.341309,-0.58789062 40.69043,-1.1967773 40.69043,-2.1625977 q 0,-0.902832 0.608886,-1.4907226 0.608887,-0.6088867 1.826661,-0.6508789 l -4.325196,-5.3330078 -4.367187,5.3330078 q 1.196777,0.041992 1.805664,0.6508789 0.608887,0.6088867 0.608887,1.5117187 0,0.9448243 -0.671875,1.55371098 Q 35.525391,0 33.97168,0 h -4.829102 q -1.553711,0 -2.225586,-0.58789062 -0.650879,-0.60888668 -0.650879,-1.57470708 0,-0.9238281 0.650879,-1.5327148 0.650879,-0.6088867 1.910645,-0.6088867 l 7.138672,-8.7133788 -6.802735,-8.125488 q -1.259765,-0.04199 -1.889648,-0.629883 -0.608887,-0.608887 -0.608887,-1.532715 0,-0.96582 0.650879,-1.553711 0.671875,-0.608887 2.225586,-0.608887 l 3.968262,0.021 q 1.553711,0 2.204589,0.587891 0.671875,0.587891 0.671875,1.553711 0,0.713867 -0.419921,1.301758 -0.27295,0.356933 -1.217774,0.86084 l 4.010254,4.808105 3.92627,-4.808105 q -0.944825,-0.503907 -1.217774,-0.86084 -0.419922,-0.587891 -0.419922,-1.301758 0,-0.944824 0.650879,-1.553711 0.671875,-0.608887 2.225586,-0.608887 l 3.947266,0.021 q 1.553711,0 2.20459,0.587891 0.671875,0.587891 0.671875,1.553711 0,0.923828 -0.650879,1.532715 -0.629883,0.608887 -1.847657,0.629883 z"
         id="text15"
         transform="translate(1002.33,361)"
         aria-label="AX" />
      <path
         style="color:#000000;fill:#000000;stroke-miterlimit:8;-inkscape-stroke:none"
         d="m 273,408 v 62 h 154 v -62 z m 2,2 h 150 v 58 H 275 Z"
         id="rect15" />
      <path
         d="m 8.4824219,-10.624023 v 6.3198238 H 19.463379 v -2.3305664 q 0,-1.553711 0.587891,-2.2045899 0.608886,-0.671875 1.574707,-0.671875 0.944824,0 1.532714,0.671875 0.608887,0.6508789 0.608887,2.2045899 V 0 H 3.5063477 Q 1.9526367,0 1.2807617,-0.58789062 0.62988281,-1.1967773 0.62988281,-2.1625977 q 0,-0.9448242 0.67187499,-1.5327148 0.671875,-0.6088867 2.2045899,-0.6088867 h 0.671875 V -21.143066 h -0.671875 q -1.553711,0 -2.225586,-0.587891 -0.65087889,-0.608887 -0.65087889,-1.574707 0,-0.96582 0.65087889,-1.553711 0.671875,-0.608887 2.225586,-0.608887 l 19.3164063,0.021 v 6.550782 q 0,1.532714 -0.587891,2.204589 -0.58789,0.650879 -1.553711,0.650879 -0.96582,0 -1.574707,-0.650879 -0.58789,-0.650878 -0.58789,-2.204589 v -2.246582 H 8.4824219 v 6.214843 h 3.7792971 q 0,-1.679687 0.314941,-2.162597 0.650879,-1.028809 1.847656,-1.028809 0.944825,0 1.532715,0.671875 0.608887,0.650879 0.608887,2.20459 v 4.955078 q 0,1.4067383 -0.335938,1.8896485 -0.671875,0.9868164 -1.805664,0.9868164 -1.196777,0 -1.847656,-1.0288086 -0.314941,-0.4829101 -0.314941,-2.1835933 z M 43.96582,-6.9287109 H 33.509766 l -1.049805,2.6245117 h 1.049805 q 1.553711,0 2.204589,0.6088867 0.671875,0.5878906 0.671875,1.5537109 0,0.9448243 -0.671875,1.55371098 Q 35.063477,0 33.509766,0 h -5.794922 q -1.553711,0 -2.20459,-0.58789062 -0.671875,-0.60888668 -0.671875,-1.57470708 0,-0.9658203 0.692871,-1.574707 0.692871,-0.6088867 2.288574,-0.5668945 L 34.580566,-21.143066 H 31.76709 q -1.553711,0 -2.225586,-0.587891 -0.650879,-0.608887 -0.650879,-1.574707 0,-0.96582 0.650879,-1.553711 0.671875,-0.608887 2.225586,-0.608887 l 9.301269,0.021 8.566407,21.1430668 q 1.511718,0 1.994629,0.3359375 0.96582,0.6928711 0.96582,1.8266601 0,0.9448243 -0.650879,1.55371098 Q 51.293457,0 49.739746,0 h -5.794922 q -1.553711,0 -2.225586,-0.58789062 -0.650879,-0.60888668 -0.650879,-1.57470708 0,-0.9448242 0.650879,-1.5327148 0.671875,-0.6088867 2.225586,-0.6088867 h 1.049805 z m -1.784668,-4.3041991 -3.464355,-8.524414 -3.485352,8.524414 z"
         id="text16"
         transform="translate(311.278,451)"
         aria-label="EA" />
      <path
         d="m 15.726074,-12.975586 7.180664,8.6713868 q 1.280762,0.020996 1.910645,0.6298828 0.650879,0.5878906 0.650879,1.5327148 0,0.9448243 -0.671875,1.55371098 Q 24.145508,0 22.591797,0 H 17.741699 Q 16.208984,0 15.537109,-0.58789062 14.88623,-1.1967773 14.88623,-2.1625977 q 0,-0.902832 0.608887,-1.4907226 0.608887,-0.6088867 1.82666,-0.6508789 L 12.996582,-9.637207 8.6293945,-4.3041992 q 1.1967774,0.041992 1.8056645,0.6508789 0.608886,0.6088867 0.608886,1.5117187 0,0.9448243 -0.671875,1.55371098 Q 9.7211914,0 8.1674805,0 H 3.3383789 Q 1.784668,0 1.112793,-0.58789062 0.46191406,-1.1967773 0.46191406,-2.1625977 q 0,-0.9238281 0.65087894,-1.5327148 0.6508789,-0.6088867 1.9106445,-0.6088867 l 7.1386715,-8.7133788 -6.802734,-8.125488 q -1.2597656,-0.04199 -1.8896484,-0.629883 -0.60888676,-0.608887 -0.60888676,-1.532715 0,-0.96582 0.65087886,-1.553711 0.6718751,-0.608887 2.225586,-0.608887 l 3.9682617,0.021 q 1.5537109,0 2.2045899,0.587891 0.6718747,0.587891 0.6718747,1.553711 0,0.713867 -0.419922,1.301758 -0.2729488,0.356933 -1.2177731,0.86084 l 4.0102541,4.808105 3.926269,-4.808105 q -0.944824,-0.503907 -1.217773,-0.86084 -0.419922,-0.587891 -0.419922,-1.301758 0,-0.944824 0.650879,-1.553711 0.671875,-0.608887 2.225586,-0.608887 l 3.947266,0.021 q 1.55371,0 2.204589,0.587891 0.671875,0.587891 0.671875,1.553711 0,0.923828 -0.650879,1.532715 -0.629882,0.608887 -1.847656,0.629883 z"
         id="text17"
         transform="translate(362.611,451)"
         aria-label="X" />
      <path
         style="color:#000000;fill:#000000;stroke-miterlimit:8;-inkscape-stroke:none"
         d="m 520,408 v 62 h 154 v -62 z m 2,2 h 150 v 58 H 522 Z"
         id="rect17" />
      <path
         d="m 9.300293,-7.0239258 q 0.933105,0.6357422 1.394531,1.4765625 0.461426,0.8305664 0.461426,1.866211 0,1.1176757 -0.615234,2.071289 -0.6049808,0.94335939 -1.7636722,1.43554689 -1.1586915,0.4819336 -3.0351563,0.4819336 -2.4404297,0 -3.6708984,-0.75878907 -0.6870118,-0.43066406 -0.6870118,-1.02539062 0,-0.4511719 0.2973633,-0.7587891 0.3076172,-0.3178711 0.7382813,-0.3178711 0.2973633,0 0.6152344,0.2050782 0.4511718,0.3076172 0.8510742,0.4101562 0.6152343,0.1435547 1.6918945,0.1435547 1.8354492,0 2.6557617,-0.4716797 0.8203125,-0.4819336 0.8203125,-1.3535156 0,-0.6459961 -0.4819336,-1.2407227 Q 8.1005859,-5.465332 7.3007812,-5.793457 6.8393555,-5.9780273 5.7421875,-6.0498047 5.2192383,-6.0805664 4.9321289,-6.3676758 4.6552734,-6.6650391 4.6552734,-7.0957031 q 0,-0.4511719 0.3076172,-0.7587891 0.3076172,-0.3076172 0.7792969,-0.3076172 1.0458984,0 1.1176758,-0.010254 0.4101562,-0.041016 0.8203125,-0.2666015 0.4101562,-0.225586 0.65625,-0.6152344 0.2563476,-0.3999024 0.2563476,-0.8203125 0,-0.6665043 -0.5947265,-1.1484373 -0.5844727,-0.492188 -1.7636719,-0.492188 -1.5175781,0 -2.3173828,0.881836 -0.2358399,0.256348 -0.3793945,0.328125 -0.2153321,0.112793 -0.4819336,0.112793 -0.4306641,0 -0.7382813,-0.307617 -0.3076172,-0.307617 -0.3076172,-0.758789 0,-0.70752 0.9433594,-1.374024 1.3740234,-0.974121 3.4350586,-0.974121 1.9482422,0 3.1274414,1.107422 1.179199,1.107422 1.179199,2.6660159 0,0.8100586 -0.348633,1.5175781 -0.3486324,0.6972657 -1.045898,1.2919922 z"
         id="text18"
         transform="translate(532.722,445)"
         aria-label="3" />
      <path
         d="m 4.3374023,-2.1020508 h 4.604004 q 0.3793945,-0.3076172 0.7177734,-0.3076172 0.4819333,0 0.7587893,0.3178711 0.287109,0.3178711 0.287109,1.0869141 V 0 H 1.1279297 v -2.2250977 q 5.680664,-4.6860351 6.8598633,-6.0292968 0.5947265,-0.6870118 0.5947265,-1.3022461 0,-0.7690434 -0.6767578,-1.3535154 -0.6665039,-0.594727 -1.7841797,-0.594727 -1.1279297,0 -1.8764648,0.65625 -0.3896484,0.348633 -0.6254883,1.0356447 -0.1435547,0.4306641 -0.3999023,0.6152344 -0.2460938,0.1845703 -0.6152344,0.1845703 -0.4306641,0 -0.7485352,-0.3076172 -0.3076172,-0.3076172 -0.3076172,-0.7177732 0,-0.615235 0.5639649,-1.538086 0.5742187,-0.922852 1.6611328,-1.476563 1.097168,-0.553711 2.3789062,-0.553711 1.9892579,0 3.2607422,1.209961 1.2714841,1.199707 1.2714841,2.9121097 0,0.871582 -0.36914,1.6201172 -0.358887,0.7382813 -1.7431644,2.0507813 -1.086914,1.0356445 -4.2348633,3.711914 z"
         id="text19"
         transform="translate(545.556,445)"
         aria-label="2" />
      <path
         d="m 3.6503906,-13.299316 v 4.7167965 q 0.769043,-0.5024414 1.5585938,-0.7485352 0.7998047,-0.2563476 1.6098633,-0.2563476 2.184082,0 3.7016603,1.5073242 1.517578,1.5073242 1.517578,3.6401367 0,2.0405273 -1.445801,3.4145508 -1.4458006,1.36376951 -3.814453,1.36376951 -0.8408203,0 -1.6201172,-0.21533204 Q 4.378418,-0.09228516 3.6503906,-0.51269531 V 0 H 1.1894531 Q 0.43066406,0 0.10253906,-0.28710938 -0.21533203,-0.58447266 -0.21533203,-1.0561523 q 0,-0.4614258 0.328125,-0.7485352 0.328125,-0.2973633 1.07666013,-0.2973633 H 1.5483398 V -11.197266 H 1.1894531 q -0.75878904,0 -1.08691404,-0.287109 -0.31787109,-0.297363 -0.31787109,-0.769043 0,-0.461426 0.31787109,-0.748535 0.328125,-0.297363 1.08691404,-0.297363 z m 6.2856446,8.920898 q 0,-1.3022461 -0.9125977,-2.2045898 -0.9125977,-0.9023438 -2.2353516,-0.9023438 -1.3125,0 -2.2250976,0.9023438 -0.9125977,0.9023437 -0.9125977,2.1738281 0,1.1586914 0.8203125,1.9072266 0.8203125,0.7382812 2.3173828,0.7382812 1.4970704,0 2.3173829,-0.7382812 0.8305664,-0.7485352 0.8305664,-1.8764649 z m 9.7207028,-8.920898 v 2.225097 h -2.501953 v -2.225097 z m 0.28711,3.9887691 v 7.2084961 h 2.522461 q 0.758789,0 1.07666,0.2973633 0.328125,0.2871094 0.328125,0.7587891 0,0.46142574 -0.328125,0.75878902 Q 23.225098,0 22.466309,0 h -7.146973 q -0.758789,0 -1.086914,-0.28710938 -0.317871,-0.29736328 -0.317871,-0.76904292 0,-0.4614258 0.317871,-0.7485352 0.328125,-0.2973633 1.086914,-0.2973633 h 2.522461 v -5.1064453 h -1.691895 q -0.748535,0 -1.07666,-0.2871094 -0.328125,-0.2973632 -0.328125,-0.7690429 0,-0.4614258 0.317871,-0.7485352 0.328125,-0.2973633 1.086914,-0.2973633 z m 11.043457,2.1020508 v 4.2143555 q 0,0.6767578 0.276855,0.8920898 0.430664,0.3383789 1.538086,0.3383789 1.609863,0 2.973633,-0.6870117 0.522949,-0.2666016 0.820312,-0.2666016 0.410157,0 0.70752,0.3076172 0.307617,0.3076172 0.307617,0.7485352 0,0.4101562 -0.328125,0.70751952 -0.502441,0.48193359 -1.989258,0.89208984 -1.476562,0.39990235 -2.491699,0.39990235 -1.958496,0 -2.942871,-0.84082032 -0.974121,-0.85107419 -0.974121,-2.08154299 v -4.6245117 h -0.758789 q -0.758789,0 -1.086914,-0.2871094 -0.317871,-0.2973632 -0.317871,-0.7690429 0,-0.4614258 0.317871,-0.7485352 0.328125,-0.2973633 1.086914,-0.2973633 h 0.758789 V -11.20752 q 0,-0.758789 0.287109,-1.07666 0.297364,-0.328125 0.769043,-0.328125 0.461426,0 0.748535,0.328125 0.297364,0.317871 0.297364,1.07666 v 1.8969731 h 3.88623 q 0.758789,0 1.07666,0.2973633 0.328125,0.2871094 0.328125,0.7587891 0,0.4614258 -0.328125,0.758789 -0.317871,0.2871094 -1.07666,0.2871094 z"
         id="text20"
         transform="translate(571.222,445)"
         aria-label="bit" />
      <path
         d="M 8.5722656,-6.8496094 Q 8.0595703,-7.1674805 7.4956055,-7.3212891 6.9316406,-7.4853516 6.3164062,-7.4853516 q -1.2202148,0 -1.9379882,0.3999024 -0.3178711,0.1743164 -0.3178711,0.3793945 0,0.2358399 0.430664,0.4614258 0.328125,0.1640625 1.4663086,0.3178711 2.0917969,0.2871094 2.9121094,0.5742187 1.0766602,0.3793946 1.6611331,1.1279297 0.584472,0.7485352 0.584472,1.5791016 0,1.1279297 -0.994629,1.88671874 -1.4252925,1.09716797 -3.7016597,1.09716797 -0.9125976,0 -1.6918945,-0.1640625 -0.769043,-0.1538086 -1.4150391,-0.46142579 -0.1538086,0.13330079 -0.328125,0.20507813 -0.1743164,0.07177734 -0.3588867,0.07177734 -0.4921875,0 -0.7895508,-0.31787109 Q 1.5483398,-0.65625 1.5483398,-1.4150391 v -0.7075195 q 0,-0.7587891 0.2871094,-1.0766602 0.2973633,-0.328125 0.769043,-0.328125 0.3793945,0 0.6357422,0.2153321 0.2563476,0.2050781 0.3999023,0.7177734 0.4819336,0.4101563 1.1586914,0.6254883 0.6767578,0.2050781 1.5585938,0.2050781 1.4458008,0 2.2456054,-0.4511719 0.3793946,-0.2255859 0.3793946,-0.4716796 0,-0.4101563 -0.5434571,-0.6767579 Q 7.8955078,-3.6298828 6.1933594,-3.8144531 3.6606445,-4.0810547 2.8095703,-4.8398437 1.9584961,-5.5883789 1.9584961,-6.6855469 q 0,-1.1279297 0.9536133,-1.8764648 1.2919922,-1.0253906 3.383789,-1.0253906 0.7280274,0 1.3945313,0.1435546 0.6767578,0.1333008 1.2919922,0.4204102 0.1948242,-0.1435547 0.3588867,-0.215332 0.1743164,-0.071777 0.3178711,-0.071777 0.4306643,0 0.7177733,0.328125 0.28711,0.3178711 0.28711,1.0766602 v 0.5126953 q 0,0.6870117 -0.164063,0.9331055 -0.328125,0.4716797 -0.8920898,0.4716797 -0.3793946,0 -0.6665039,-0.2358399 -0.2871094,-0.2358398 -0.3691407,-0.6254883 z m 9.8950194,-2.4609375 v 1.3125 q 1.322754,-0.9536133 2.081543,-1.2714844 0.769043,-0.317871 1.435547,-0.317871 1.025391,0 1.989258,0.758789 0.65625,0.5126953 0.65625,1.0458985 0,0.4511718 -0.317871,0.7690429 -0.307617,0.3076172 -0.748535,0.3076172 -0.389649,0 -0.820313,-0.3896484 -0.430664,-0.3896485 -0.769043,-0.3896485 -0.440918,0 -1.322754,0.553711 -0.871582,0.5537109 -2.184082,1.6611328 v 3.168457 h 2.994141 q 0.758789,0 1.07666,0.2973633 0.328125,0.2871094 0.328125,0.7587891 0,0.46142574 -0.328125,0.75878902 Q 22.220215,0 21.461426,0 h -6.347168 q -0.758789,0 -1.086914,-0.28710938 -0.317871,-0.29736328 -0.317871,-0.76904292 0,-0.4614258 0.317871,-0.7485352 0.328125,-0.2973633 1.086914,-0.2973633 h 1.250976 v -5.1064453 h -0.758789 q -0.758789,0 -1.086914,-0.2871094 -0.317871,-0.2973632 -0.317871,-0.7690429 0,-0.4614258 0.317871,-0.7485352 0.328125,-0.2973633 1.086914,-0.2973633 z m 16.313965,0.3793946 q 0.379395,-0.3588868 0.779297,-0.3588868 0.451172,0 0.738281,0.328125 0.297363,0.3178711 0.297363,1.0664063 v 1.3535156 q 0,0.7587891 -0.297363,1.0766602 -0.287109,0.3178711 -0.758789,0.3178711 -0.430664,0 -0.728027,-0.2460938 -0.215332,-0.1845703 -0.338379,-0.7485351 -0.123047,-0.5742188 -0.594727,-0.8510743 -0.830566,-0.4921875 -2.122558,-0.4921875 -1.486817,0 -2.389161,0.8715821 -0.892089,0.871582 -0.892089,2.2045898 0,1.2304688 0.861328,1.9482422 0.861328,0.7075195 2.86084,0.7075195 1.3125,0 2.143066,-0.2666015 0.492188,-0.1640625 0.933105,-0.553711 0.440918,-0.3999023 0.799805,-0.3999023 0.430664,0 0.738281,0.3178711 0.317872,0.3178711 0.317872,0.7485351 0,0.6972657 -0.953614,1.32275394 -1.415039,0.93310547 -4.142578,0.93310547 -2.450683,0 -3.814453,-1.01513672 -1.845703,-1.36376949 -1.845703,-3.73242189 0,-2.2456054 1.49707,-3.711914 1.49707,-1.4765625 3.906738,-1.4765625 0.871582,0 1.620118,0.1640625 0.748535,0.1640625 1.384277,0.4921875 z"
         id="text21"
         transform="translate(622.556,445)"
         aria-label="src" />
      <path
         d="m 17.510742,-12.261719 9.427246,9.5322268 -2.099609,2.09960939 L 15.432129,-10.225098 5.7319336,-0.71386719 3.7792969,-2.6875 l 9.5952151,-9.574219 -9.5532229,-9.427246 2.0996093,-2.099609 9.5112306,9.490234 9.51123,-9.490234 1.973633,1.952637 z"
         id="text22"
         transform="translate(458.014,454)"
         aria-label="×" />
      <path
         d="m 3.128418,-15.243164 v -2.792481 h 25.867187 v 2.792481 z m 0,8.7133788 v -2.7924804 h 25.867187 v 2.7924804 z m 26.749023,-5.7529298 z"
         id="text23"
         transform="translate(707.569,453)"
         aria-label="=" />
      <path
         style="color:#000000;fill:#000000;stroke-miterlimit:8;-inkscape-stroke:none"
         d="m 767,407 v 62 h 154 v -62 z m 2,2 h 150 v 58 H 769 Z"
         id="rect23" />
      <path
         d="m 8.4824219,-10.624023 v 6.3198238 H 19.463379 v -2.3305664 q 0,-1.553711 0.587891,-2.2045899 0.608886,-0.671875 1.574707,-0.671875 0.944824,0 1.532714,0.671875 0.608887,0.6508789 0.608887,2.2045899 V 0 H 3.5063477 Q 1.9526367,0 1.2807617,-0.58789062 0.62988281,-1.1967773 0.62988281,-2.1625977 q 0,-0.9448242 0.67187499,-1.5327148 0.671875,-0.6088867 2.2045899,-0.6088867 h 0.671875 V -21.143066 h -0.671875 q -1.553711,0 -2.225586,-0.587891 -0.65087889,-0.608887 -0.65087889,-1.574707 0,-0.96582 0.65087889,-1.553711 0.671875,-0.608887 2.225586,-0.608887 l 19.3164063,0.021 v 6.550782 q 0,1.532714 -0.587891,2.204589 -0.58789,0.650879 -1.553711,0.650879 -0.96582,0 -1.574707,-0.650879 -0.58789,-0.650878 -0.58789,-2.204589 v -2.246582 H 8.4824219 v 6.214843 h 3.7792971 q 0,-1.679687 0.314941,-2.162597 0.650879,-1.028809 1.847656,-1.028809 0.944825,0 1.532715,0.671875 0.608887,0.650879 0.608887,2.20459 v 4.955078 q 0,1.4067383 -0.335938,1.8896485 -0.671875,0.9868164 -1.805664,0.9868164 -1.196777,0 -1.847656,-1.0288086 -0.314941,-0.4829101 -0.314941,-2.1835933 z M 29.07959,-4.3041992 V -21.143066 q -1.364746,-0.021 -2.015625,-0.608887 -0.650879,-0.608887 -0.650879,-1.553711 0,-0.96582 0.650879,-1.553711 0.671875,-0.608887 2.225586,-0.608887 l 9.007324,0.021 q 2.099609,0 4.094238,0.776856 2.015625,0.776855 3.233399,1.973633 0.923828,0.902832 1.910644,2.477539 1.007813,1.574707 1.511719,3.128418 0.503906,1.553711 0.503906,3.800293 v 2.057617 q 0,2.729492 -0.923828,4.8500975 -0.923828,2.0996094 -2.435547,3.4433594 -1.490722,1.3227539 -2.813476,1.95263669 Q 41.27832,0 37.939941,0 h -8.65039 Q 27.73584,0 27.063965,-0.58789062 26.413086,-1.1967773 26.413086,-2.1625977 q 0,-0.9448242 0.650879,-1.5537109 0.671875,-0.6088867 2.015625,-0.5878906 z m 4.304199,0 h 4.577148 q 2.561524,0 3.863282,-0.7348633 1.700683,-0.9658203 2.561523,-2.456543 0.86084,-1.4907226 0.86084,-3.8632815 v -2.036621 q 0,-2.036621 -0.776855,-3.569336 -1.217774,-2.393554 -2.750489,-3.27539 -1.511718,-0.902832 -3.800293,-0.902832 h -4.535156 z m 33.950684,-8.6713868 7.180664,8.6713868 q 1.280761,0.020996 1.910644,0.6298828 0.650879,0.5878906 0.650879,1.5327148 0,0.9448243 -0.671875,1.55371098 Q 75.753906,0 74.200195,0 h -4.850097 q -1.532715,0 -2.20459,-0.58789062 -0.650879,-0.60888668 -0.650879,-1.57470708 0,-0.902832 0.608887,-1.4907226 0.608886,-0.6088867 1.82666,-0.6508789 L 64.60498,-9.637207 60.237793,-4.3041992 q 1.196777,0.041992 1.805664,0.6508789 0.608887,0.6088867 0.608887,1.5117187 0,0.9448243 -0.671875,1.55371098 Q 61.32959,0 59.775879,0 h -4.829102 q -1.553711,0 -2.225586,-0.58789062 -0.650879,-0.60888668 -0.650879,-1.57470708 0,-0.9238281 0.650879,-1.5327148 0.650879,-0.6088867 1.910645,-0.6088867 l 7.138672,-8.7133788 -6.802735,-8.125488 q -1.259765,-0.04199 -1.889648,-0.629883 -0.608887,-0.608887 -0.608887,-1.532715 0,-0.96582 0.650879,-1.553711 0.671875,-0.608887 2.225586,-0.608887 l 3.968262,0.021 q 1.553711,0 2.20459,0.587891 0.671875,0.587891 0.671875,1.553711 0,0.713867 -0.419922,1.301758 -0.272949,0.356933 -1.217774,0.86084 l 4.010254,4.808105 3.92627,-4.808105 q -0.944824,-0.503907 -1.217774,-0.86084 -0.419922,-0.587891 -0.419922,-1.301758 0,-0.944824 0.650879,-1.553711 0.671875,-0.608887 2.225586,-0.608887 l 3.947266,0.021 q 1.553711,0 2.20459,0.587891 0.671875,0.587891 0.671875,1.553711 0,0.923828 -0.650879,1.532715 -0.629883,0.608887 -1.847656,0.629883 z"
         id="text24"
         transform="translate(805.5,450)"
         aria-label="EDX" />
      <path
         style="color:#000000;fill:#000000;stroke-miterlimit:8;-inkscape-stroke:none"
         d="m 951,407 v 62 h 154 v -62 z m 2,2 h 150 v 58 H 953 Z"
         id="rect24" />
      <path
         d="m 8.4824219,-10.624023 v 6.3198238 H 19.463379 v -2.3305664 q 0,-1.553711 0.587891,-2.2045899 0.608886,-0.671875 1.574707,-0.671875 0.944824,0 1.532714,0.671875 0.608887,0.6508789 0.608887,2.2045899 V 0 H 3.5063477 Q 1.9526367,0 1.2807617,-0.58789062 0.62988281,-1.1967773 0.62988281,-2.1625977 q 0,-0.9448242 0.67187499,-1.5327148 0.671875,-0.6088867 2.2045899,-0.6088867 h 0.671875 V -21.143066 h -0.671875 q -1.553711,0 -2.225586,-0.587891 -0.65087889,-0.608887 -0.65087889,-1.574707 0,-0.96582 0.65087889,-1.553711 0.671875,-0.608887 2.225586,-0.608887 l 19.3164063,0.021 v 6.550782 q 0,1.532714 -0.587891,2.204589 -0.58789,0.650879 -1.553711,0.650879 -0.96582,0 -1.574707,-0.650879 -0.58789,-0.650878 -0.58789,-2.204589 v -2.246582 H 8.4824219 v 6.214843 h 3.7792971 q 0,-1.679687 0.314941,-2.162597 0.650879,-1.028809 1.847656,-1.028809 0.944825,0 1.532715,0.671875 0.608887,0.650879 0.608887,2.20459 v 4.955078 q 0,1.4067383 -0.335938,1.8896485 -0.671875,0.9868164 -1.805664,0.9868164 -1.196777,0 -1.847656,-1.0288086 -0.314941,-0.4829101 -0.314941,-2.1835933 z M 43.96582,-6.9287109 H 33.509766 l -1.049805,2.6245117 h 1.049805 q 1.553711,0 2.204589,0.6088867 0.671875,0.5878906 0.671875,1.5537109 0,0.9448243 -0.671875,1.55371098 Q 35.063477,0 33.509766,0 h -5.794922 q -1.553711,0 -2.20459,-0.58789062 -0.671875,-0.60888668 -0.671875,-1.57470708 0,-0.9658203 0.692871,-1.574707 0.692871,-0.6088867 2.288574,-0.5668945 L 34.580566,-21.143066 H 31.76709 q -1.553711,0 -2.225586,-0.587891 -0.650879,-0.608887 -0.650879,-1.574707 0,-0.96582 0.650879,-1.553711 0.671875,-0.608887 2.225586,-0.608887 l 9.301269,0.021 8.566407,21.1430668 q 1.511718,0 1.994629,0.3359375 0.96582,0.6928711 0.96582,1.8266601 0,0.9448243 -0.650879,1.55371098 Q 51.293457,0 49.739746,0 h -5.794922 q -1.553711,0 -2.225586,-0.58789062 -0.650879,-0.60888668 -0.650879,-1.57470708 0,-0.9448242 0.650879,-1.5327148 0.671875,-0.6088867 2.225586,-0.6088867 h 1.049805 z m -1.784668,-4.3041991 -3.464355,-8.524414 -3.485352,8.524414 z m 25.153321,-1.742676 7.180664,8.6713868 q 1.280761,0.020996 1.910644,0.6298828 0.650879,0.5878906 0.650879,1.5327148 0,0.9448243 -0.671875,1.55371098 Q 75.753906,0 74.200195,0 h -4.850097 q -1.532715,0 -2.20459,-0.58789062 -0.650879,-0.60888668 -0.650879,-1.57470708 0,-0.902832 0.608887,-1.4907226 0.608886,-0.6088867 1.82666,-0.6508789 L 64.60498,-9.637207 60.237793,-4.3041992 q 1.196777,0.041992 1.805664,0.6508789 0.608887,0.6088867 0.608887,1.5117187 0,0.9448243 -0.671875,1.55371098 Q 61.32959,0 59.775879,0 h -4.829102 q -1.553711,0 -2.225586,-0.58789062 -0.650879,-0.60888668 -0.650879,-1.57470708 0,-0.9238281 0.650879,-1.5327148 0.650879,-0.6088867 1.910645,-0.6088867 l 7.138672,-8.7133788 -6.802735,-8.125488 q -1.259765,-0.04199 -1.889648,-0.629883 -0.608887,-0.608887 -0.608887,-1.532715 0,-0.96582 0.650879,-1.553711 0.671875,-0.608887 2.225586,-0.608887 l 3.968262,0.021 q 1.553711,0 2.20459,0.587891 0.671875,0.587891 0.671875,1.553711 0,0.713867 -0.419922,1.301758 -0.272949,0.356933 -1.217774,0.86084 l 4.010254,4.808105 3.92627,-4.808105 q -0.944824,-0.503907 -1.217774,-0.86084 -0.419922,-0.587891 -0.419922,-1.301758 0,-0.944824 0.650879,-1.553711 0.671875,-0.608887 2.225586,-0.608887 l 3.947266,0.021 q 1.553711,0 2.20459,0.587891 0.671875,0.587891 0.671875,1.553711 0,0.923828 -0.650879,1.532715 -0.629883,0.608887 -1.847656,0.629883 z"
         id="text25"
         transform="translate(989.5,450)"
         aria-label="EAX" />
      <path
         style="color:#000000;fill:#ff0000;fill-rule:evenodd;stroke-miterlimit:8;-inkscape-stroke:none"
         d="m 261,223 c -9.01164,0 -17.16947,1.16617 -23.24414,3.13477 -3.03734,0.98429 -5.55852,2.15676 -7.45703,3.61132 C 228.40031,231.20066 227,233.10351 227,235.36914 v 52.26172 c 0,2.26563 1.40031,4.16848 3.29883,5.62305 1.89851,1.45456 4.41969,2.62703 7.45703,3.61132 C 243.83053,298.83383 251.98836,300 261,300 v -4 c -8.66135,0 -16.50465,-1.1548 -22.01172,-2.93945 -2.75353,-0.89233 -4.91773,-1.95571 -6.25781,-2.98243 C 231.39039,289.05141 231,288.22872 231,287.63086 v -52.26172 c 0,-0.59786 0.39039,-1.42055 1.73047,-2.44727 1.34008,-1.02671 3.50428,-2.09009 6.25781,-2.98242 C 244.49535,228.1548 252.33865,227 261,227 Z"
         id="path25" />
      <path
         style="color:#000000;fill:#ff0000;fill-rule:evenodd;stroke-miterlimit:8;-inkscape-stroke:none"
         d="m 261,312 c -9.01164,0 -17.16947,1.16617 -23.24414,3.13477 -3.03734,0.98429 -5.55852,2.15676 -7.45703,3.61132 C 228.40031,320.20066 227,322.10351 227,324.36914 v 52.26172 c 0,2.26563 1.40031,4.16848 3.29883,5.62305 1.89851,1.45456 4.41969,2.62703 7.45703,3.61132 C 243.83053,387.83383 251.98836,389 261,389 v -4 c -8.66135,0 -16.50465,-1.1548 -22.01172,-2.93945 -2.75353,-0.89233 -4.91773,-1.95571 -6.25781,-2.98243 C 231.39039,378.05141 231,377.22872 231,376.63086 v -52.26172 c 0,-0.59786 0.39039,-1.42055 1.73047,-2.44727 1.34008,-1.02671 3.50428,-2.09009 6.25781,-2.98242 C 244.49535,317.1548 252.33865,316 261,316 Z"
         id="path26" />
      <path
         style="color:#000000;fill:#ff0000;fill-rule:evenodd;stroke-miterlimit:8;-inkscape-stroke:none"
         d="m 261,400 c -9.01164,0 -17.16947,1.16617 -23.24414,3.13477 -3.03734,0.98429 -5.55852,2.15676 -7.45703,3.61132 C 228.40031,408.20066 227,410.10351 227,412.36914 v 52.26172 c 0,2.26563 1.40031,4.16848 3.29883,5.62305 1.89851,1.45456 4.41969,2.62703 7.45703,3.61132 C 243.83053,475.83383 251.98836,477 261,477 v -4 c -8.66135,0 -16.50465,-1.1548 -22.01172,-2.93945 -2.75353,-0.89233 -4.91773,-1.95571 -6.25781,-2.98243 C 231.39039,466.05141 231,465.22872 231,464.63086 v -52.26172 c 0,-0.59786 0.39039,-1.42055 1.73047,-2.44727 1.34008,-1.02671 3.50428,-2.09009 6.25781,-2.98242 C 244.49535,405.1548 252.33865,404 261,404 Z"
         id="path27" />
      <path
         d="M 2.90625,-0.57421875 1.828125,0.1875 1.078125,0 4.1132812,-13.394531 q 0.2695313,-1.195313 0.2695313,-1.734375 0,-0.492188 -0.3046875,-0.691407 -0.2929687,-0.199218 -1.0664062,-0.222656 l 0.140625,-0.609375 2.9648437,-0.105468 H 6.796875 l -2.0625,8.2031245 0.1523437,0.046875 q 1.1367188,-1.5234375 2.1328125,-2.2031255 0.9960938,-0.679687 1.9921876,-0.679687 1.2773442,0 1.9804692,0.972656 0.714843,0.9726565 0.714843,2.7421878 0,1.9335937 -0.785156,3.8085937 -0.773437,1.8632812 -2.15625,2.96484375 Q 7.3828125,0.1875 5.671875,0.1875 4.1132812,0.1875 2.90625,-0.57421875 Z M 3.9375,-4.078125 q -0.1757812,0.8203125 -0.1757812,1.59375 0,0.9257813 0.3984374,1.3359375 0.4101563,0.41015625 1.3476563,0.41015625 0.4804687,0 0.9140625,-0.15234375 0.4335937,-0.1640625 0.8789062,-0.5273437 0.4570313,-0.3632813 0.8554688,-0.9492188 0.4101563,-0.5976563 0.75,-1.4648438 0.3398438,-0.8671874 0.5273438,-1.8515624 0.1875,-0.9960938 0.1875,-1.8984375 0,-1.2187501 -0.3515625,-1.8281251 -0.3398438,-0.6093747 -1.1015625,-0.6093747 -0.5625001,0 -1.1132813,0.363281 -0.5390625,0.3515625 -1.2070313,1.1835937 -0.6679687,0.8203126 -1.0898437,1.6875001 -0.421875,0.8671875 -0.7148438,2.2148437 z m 14.730469,4.1015625 q -0.339844,-2.0507813 -0.925782,-4.9453125 -0.621093,-3.09375 -0.820312,-3.8320313 -0.246094,-0.890625 -0.515625,-1.1367187 -0.164063,-0.152344 -0.410156,-0.152344 -0.375,0 -0.703125,0.3046877 -0.328125,0.3046875 -0.808594,1.0546875 L 13.722656,-9.1875 q 0.808594,-1.207031 1.511719,-1.699219 0.703125,-0.503906 1.570312,-0.503906 0.480469,0 0.820313,0.128906 0.234375,0.09375 0.46875,0.316406 0.234375,0.210938 0.410156,0.597657 0.1875,0.3867185 0.316406,0.8671872 Q 18.960937,-9 19.125,-8.0976563 q 0.28125,1.5117188 0.539062,3.1875001 0.269532,1.6640624 0.457032,3.09375 1.136718,-1.6406251 1.921875,-3.2109375 0.796875,-1.5703125 1.136718,-2.7304688 0.351563,-1.1601563 0.351563,-1.8867188 0,-0.5507817 -0.234375,-0.7499997 Q 23.0625,-10.59375 22.5,-10.628906 l 0.117187,-0.574219 h 3.082032 l 0.316406,0.585937 q -0.890625,2.4375005 -2.414063,5.2148443 -1.5,2.7187499 -3.433593,5.41406245 -1.851563,2.56640625 -3.082032,3.71484375 -0.855468,0.7851562 -1.652343,1.125 -0.632813,0.2578125 -1.347656,0.2578125 -0.246094,0 -0.574219,-0.046875 -0.316406,-0.035156 -0.492188,-0.1054688 l 0.503907,-2.2734374 h 0.925781 q 0,0.75 0.515625,0.75 0.679687,0 1.582031,-0.8554688 0.902344,-0.84375 2.121094,-2.5546875 z m 15.84375,-2.2382813 q -1.019532,1.2304688 -1.96875,1.8164063 -0.9375,0.5859375 -1.96875,0.5859375 -2.449219,0 -2.449219,-2.4726563 0,-0.7851562 0.199219,-1.6523437 l 1.382812,-6.082031 h -1.96875 l 0.175781,-0.808594 q 0.691407,-0.01172 1.042969,-0.105469 0.363281,-0.09375 0.597656,-0.257812 0.246094,-0.164063 0.445313,-0.46875 0.199219,-0.304688 0.386719,-0.773438 0.1875,-0.480469 0.5625,-1.664062 h 1.617187 l -0.644531,2.894531 h 3.5625 l -0.257813,1.183594 h -3.5625 l -1.042968,4.5468748 q -0.304688,1.3242187 -0.386719,1.9101562 -0.08203,0.5742187 -0.08203,0.9257812 0,1.4531251 1.207031,1.4531251 0.515625,0 1.089844,-0.3867188 0.585937,-0.3984375 1.382812,-1.3476563 z M 45.644531,-2.3320313 Q 44.507812,-1.078125 43.335937,-0.4453125 42.175781,0.1875 40.628906,0.1875 q -1.699219,0 -2.636719,-1.03125 -0.925781,-1.0429687 -0.925781,-2.8945313 0,-1.2539062 0.445313,-2.6835937 Q 37.96875,-7.8632812 38.882812,-9 q 0.914063,-1.148438 2.191407,-1.769531 1.277343,-0.632813 2.71875,-0.632813 1.417968,0 2.121093,0.574219 0.714844,0.574219 0.714844,1.7929687 0,1.9921876 -1.875,2.9882813 -1.863281,0.9960938 -5.542969,0.9960938 -0.140625,0.703125 -0.140625,1.5234374 0,1.2304688 0.480469,1.7929688 0.480469,0.5507813 1.570313,0.5507813 1.078125,0 1.945312,-0.46875 0.878906,-0.4687501 1.851563,-1.4414063 z M 39.410156,-6.046875 q 1.652344,-0.011719 2.835938,-0.2929687 1.183593,-0.2929688 1.816406,-0.9140625 0.632812,-0.6328125 0.632812,-1.6992188 0,-0.7148438 -0.339843,-1.113281 -0.328125,-0.410157 -0.984375,-0.410157 -1.183594,0 -2.285157,1.195313 -1.089843,1.1953125 -1.675781,3.234375 z"
         id="text27"
         transform="translate(165.607,269)"
         aria-label="𝑏𝑦𝑡𝑒" />
      <path
         d="m 11.226563,-1.9453125 q 1.828125,-2.6015625 2.777343,-4.5351562 0.960938,-1.9453126 0.960938,-3.1640626 0,-0.5507817 -0.234375,-0.7499997 -0.234375,-0.199219 -0.796875,-0.234375 l 0.117187,-0.574219 h 3.023438 l 0.316406,0.585937 q -0.410156,1.0429692 -0.65625,1.6054692 -0.246094,0.5625 -0.644531,1.3593751 -0.398438,0.7851562 -0.84375,1.5703125 -0.445313,0.7851562 -1.054688,1.734375 -0.597656,0.9374999 -1.347656,2.0507812 -0.75,1.1015625 -1.769531,2.484375 H 9.6796875 L 9.1992188,-4.7109375 q -0.058594,-0.5742187 -0.1289063,-1.5 -0.058594,-0.9257812 -0.082031,-1.4296875 L 8.859375,-7.6523437 Q 8.2265625,-6.09375 7.1367187,-4.1835937 6.046875,-2.2734375 4.4414062,0.1875 H 2.8710938 L 1.9804687,-8.6367188 Q 1.9101562,-9.3164063 1.8046875,-9.7382813 1.6992187,-10.160156 1.453125,-10.371094 1.2070312,-10.582031 0.64453125,-10.628906 L 0.7734375,-11.203125 H 3.84375 l 0.703125,9.2460938 q 1.6523437,-2.6953125 2.3789062,-4.1015625 0.7382813,-1.40625 1.0898438,-2.4257813 0.3515625,-1.03125 0.5390625,-2.144531 l 0.1289063,-0.574219 h 1.6875002 z m 11.613281,2.14453125 q -1.816407,0 -2.824219,-1.01953125 Q 19.019531,-1.8398437 19.019531,-3.75 q 0,-0.9375 0.28125,-2.1679687 0.363281,-1.6640625 1.21875,-2.9062501 0.855469,-1.2421872 2.109375,-1.8984372 1.253906,-0.667969 2.753906,-0.667969 1.875,0 2.859375,1.03125 0.984375,1.0195312 0.984375,2.9296875 0,1.359375 -0.480468,2.90625 -0.46875,1.546875 -1.300782,2.6015625 -0.820312,1.0546875 -1.96875,1.59375 -1.148437,0.52734375 -2.636718,0.52734375 z M 21.070312,-3.2460938 q 0,1.2890626 0.527344,1.9101563 0.539063,0.609375 1.617188,0.609375 1.148437,0 2.039062,-1.03125 0.890625,-1.03125 1.40625,-2.8828125 0.515625,-1.8632812 0.515625,-3.2695312 0,-1.2656251 -0.492187,-1.8984376 -0.492188,-0.6445312 -1.535157,-0.6445312 -1.21875,0 -2.132812,1.0195312 -0.902344,1.0195313 -1.429688,2.9179688 -0.515625,1.8984375 -0.515625,3.2695312 z M 35.71875,-8.3789063 q 1.148437,-1.5585937 2.203125,-2.2851567 1.066406,-0.726562 2.15625,-0.726562 0.855469,0 1.429687,0.128906 l -0.5625,2.6250002 h -1.207031 q -0.07031,-0.4921875 -0.199219,-0.7617187 -0.128906,-0.2695313 -0.304687,-0.375 -0.175781,-0.1054688 -0.445313,-0.1054688 -0.421875,0 -0.925781,0.3632813 -0.492187,0.3632812 -1.113281,1.1367187 -0.621094,0.7734376 -0.996094,1.4882813 -0.363281,0.7148438 -0.609375,1.8164063 L 34.03125,0 h -2.027344 l 1.699219,-7.4296875 q 0.164062,-0.703125 0.210937,-1.0898438 0.04687,-0.3867187 0.04687,-0.6445312 0,-0.46875 -0.152343,-0.6796875 -0.152344,-0.210938 -0.480469,-0.210938 -0.363281,0 -0.773438,0.304688 -0.398437,0.2929687 -1.101562,1.078125 l -0.667969,-0.65625 q 1.078125,-1.125 1.804688,-1.59375 0.726562,-0.480469 1.605468,-0.480469 0.738282,0 1.160157,0.492188 0.433593,0.480468 0.433593,1.2656247 0,0.5859375 -0.222656,1.2070313 z m 14.414062,5.390625 q -1.125,1.6406251 -2.132812,2.4023438 -1.007813,0.76171875 -2.132813,0.76171875 -1.289062,0 -2.003906,-0.97265625 -0.703125,-0.9726562 -0.703125,-2.7304688 0,-2.0156249 0.785156,-3.8671874 0.796875,-1.8632813 2.179688,-2.9296878 1.382812,-1.078125 3.082031,-1.078125 0.714844,0 1.3125,0.152344 0.609375,0.140625 1.242188,0.503906 l 0.609375,-2.707031 q 0.09375,-0.386719 0.164062,-0.855469 0.07031,-0.46875 0.07031,-0.820312 0,-0.351563 -0.128907,-0.527344 -0.128906,-0.1875 -0.375,-0.269531 -0.234375,-0.08203 -0.855468,-0.117188 l 0.140625,-0.609375 2.941406,-0.105468 h 0.691406 l -2.917969,12.9726557 q -0.257812,1.1484375 -0.257812,1.734375 0,0.4687501 0.152344,0.6796876 0.152343,0.2109375 0.480468,0.2109375 0.351563,0 0.75,-0.28125 0.398438,-0.2929688 1.125,-1.1015626 l 0.667969,0.6562501 Q 53.941406,-0.75 53.203125,-0.28125 52.464844,0.1875 51.609375,0.1875 q -0.726563,0 -1.160156,-0.48046875 -0.433594,-0.48046875 -0.433594,-1.27734375 0,-0.6445313 0.269531,-1.3710938 z m 0.785157,-4.1484374 q 0.175781,-0.84375 0.175781,-1.5937501 0,-0.9140625 -0.386719,-1.3242192 -0.386719,-0.421875 -1.289062,-0.421875 -1.195313,0 -2.144532,0.9726567 -0.949218,0.9609375 -1.5,2.6015626 -0.539062,1.640625 -0.539062,3.2695312 0,1.21875 0.328125,1.828125 0.339844,0.5976563 1.125,0.5976563 0.363281,0 0.738281,-0.1523438 0.375,-0.1640625 0.773438,-0.515625 0.410156,-0.3515625 0.796875,-0.8554688 0.398437,-0.5039062 0.726562,-1.0078125 0.328125,-0.5156249 0.609375,-1.2070312 0.28125,-0.703125 0.480469,-1.6875 z"
         id="text28"
         transform="translate(161.581,358)"
         aria-label="𝑤𝑜𝑟𝑑" />
      <path
         d="m 4.0429687,-13.453125 q 0.140625,-0.621094 0.1992188,-0.984375 0.058594,-0.375 0.058594,-0.691406 0,-0.351563 -0.1289062,-0.527344 -0.1289063,-0.1875 -0.375,-0.269531 -0.234375,-0.08203 -0.8554687,-0.117188 l 0.140625,-0.609375 2.9531249,-0.105468 H 6.7265625 L 3.84375,-3.7851563 Q 3.5859375,-2.625 3.5859375,-2.0507813 q 0,0.4687501 0.1523438,0.6796876 0.1523437,0.2109375 0.4804687,0.2109375 0.3515625,0 0.75,-0.28125 0.3984375,-0.2929688 1.125,-1.1015626 l 0.6679687,0.6562501 Q 5.625,-0.69140625 4.8984375,-0.24609375 4.1835937,0.1875 3.2929688,0.1875 q -0.7617188,0 -1.21875,-0.55078125 -0.4570313,-0.5625 -0.4570313,-1.42968745 0,-0.7851563 0.328125,-2.2734375 z M 12.691406,0.19921875 q -1.816406,0 -2.8242185,-1.01953125 Q 8.8710938,-1.8398437 8.8710938,-3.75 q 0,-0.9375 0.28125,-2.1679687 0.3632812,-1.6640625 1.2187502,-2.9062501 0.855469,-1.2421872 2.109375,-1.8984372 1.253906,-0.667969 2.753906,-0.667969 1.875,0 2.859375,1.03125 0.984375,1.0195312 0.984375,2.9296875 0,1.359375 -0.480469,2.90625 -0.46875,1.546875 -1.300781,2.6015625 -0.820313,1.0546875 -1.96875,1.59375 -1.148437,0.52734375 -2.636719,0.52734375 z M 10.921875,-3.2460938 q 0,1.2890626 0.527344,1.9101563 0.539062,0.609375 1.617187,0.609375 1.148438,0 2.039063,-1.03125 0.890625,-1.03125 1.40625,-2.8828125 0.515625,-1.8632812 0.515625,-3.2695312 0,-1.2656251 -0.492188,-1.8984376 Q 16.042969,-10.453125 15,-10.453125 q -1.21875,0 -2.132812,1.0195312 -0.902344,1.0195313 -1.429688,2.9179688 -0.515625,1.8984375 -0.515625,3.2695312 z m 12.644531,-4.1835937 q 0.257813,-1.125 0.257813,-1.734375 0,-0.46875 -0.152344,-0.6796875 -0.152344,-0.210938 -0.480469,-0.210938 -0.363281,0 -0.773437,0.304688 -0.398438,0.2929687 -1.101563,1.078125 l -0.667969,-0.65625 q 1.078125,-1.125 1.792969,-1.59375 0.714844,-0.480469 1.617188,-0.480469 0.738281,0 1.160156,0.492188 0.433594,0.480468 0.433594,1.2656247 0,0.6210938 -0.28125,1.3828125 l 0.140625,0.046875 q 1.148437,-1.6171875 2.179687,-2.3906252 1.042969,-0.785156 2.144531,-0.785156 1.089844,0 1.675782,0.632812 0.585937,0.621094 0.585937,1.7343755 0,0.7382812 -0.339844,2.0976563 l -0.761718,3.0703124 q -0.316407,1.2773438 -0.316407,1.8046875 0,0.4687501 0.152344,0.6796876 0.152344,0.2109375 0.480469,0.2109375 0.351562,0 0.75,-0.28125 0.398437,-0.2929688 1.125,-1.1015626 l 0.667969,0.6562501 q -1.007813,1.07812495 -1.757813,1.5820312 -0.75,0.4921875 -1.710937,0.4921875 -0.761719,0 -1.21875,-0.5390625 -0.457032,-0.55078125 -0.457032,-1.3945312 0,-0.7617188 0.386719,-2.2382813 l 0.515625,-2.0273437 q 0.28125,-1.1015625 0.363281,-1.6289063 0.09375,-0.5273438 0.09375,-0.8554688 0,-0.8085937 -0.269531,-1.1601562 -0.269531,-0.363281 -0.878906,-0.363281 -0.492188,0 -1.066406,0.3984372 -0.5625,0.3867188 -1.207032,1.1835938 -0.632812,0.7851563 -1.019531,1.5351563 -0.386719,0.7382812 -0.632812,1.828125 L 23.882812,0 h -2.027343 z m 13.441406,8.4375 q -0.222656,0.2695312 -0.375,0.5273437 -0.152343,0.2695313 -0.222656,0.5156251 -0.05859,0.2460937 -0.05859,0.5859375 0,0.8789062 0.632813,1.2773437 0.632812,0.4101562 1.910156,0.4101562 1.441406,0 2.308594,-0.6562499 0.878906,-0.6445313 1.5,-2.0859376 0.621094,-1.4414062 1.207031,-4.359375 L 43.746094,-2.8125 q -1.136719,1.5585938 -2.109375,2.2734375 -0.972657,0.71484375 -2.097657,0.71484375 -1.277343,0 -1.992187,-0.9609375 -0.703125,-0.96093745 -0.703125,-2.74218755 0,-2.0039062 0.785156,-3.8437499 0.785156,-1.8515626 2.179688,-2.9414063 1.394531,-1.089844 3.105468,-1.089844 0.738282,0 1.394532,0.175781 0.65625,0.175782 1.324218,0.597657 l 1.078125,-0.773438 0.75,0.1875 -1.207031,5.4609378 Q 46.125,-5.1796875 45.667969,-2.859375 45.1875,-0.3984375 44.882812,0.62109375 44.589844,1.640625 44.144531,2.4726563 43.699219,3.3164063 42.996094,3.9375 q -0.703125,0.6210937 -1.710938,0.9609375 -0.996094,0.3398437 -2.367187,0.3398437 -4.429688,0 -4.429688,-2.5781249 0,-0.65625 0.398438,-1.1953126 0.398437,-0.53906245 1.277343,-1.1367187 z m 3.363282,-2.2148437 q 0.597656,0 1.183593,-0.4101563 0.597657,-0.4101563 1.265625,-1.3007813 Q 43.5,-3.8085938 43.875,-4.6171875 q 0.375,-0.8085937 0.632812,-2.015625 0.269532,-1.2070312 0.269532,-2.0976563 0,-0.9140625 -0.386719,-1.3242192 -0.386719,-0.421875 -1.289063,-0.421875 -1.195312,0 -2.144531,0.9726567 -0.949219,0.9609375 -1.5,2.6015626 -0.539062,1.640625 -0.539062,3.2695312 0,1.21875 0.351562,1.828125 0.351563,0.5976563 1.101563,0.5976563 z"
         id="text29"
         transform="translate(106.681,445)"
         aria-label="𝑙𝑜𝑛𝑔" />
      <text
         font-family="'Cambria Math', 'Cambria Math_MSFontService', sans-serif"
         font-weight="400"
         font-size="24px"
         transform="translate(155.928,445)"
         id="text30" />
      <path
         d="m 11.226563,-1.9453125 q 1.828125,-2.6015625 2.777343,-4.5351562 0.960938,-1.9453126 0.960938,-3.1640626 0,-0.5507817 -0.234375,-0.7499997 -0.234375,-0.199219 -0.796875,-0.234375 l 0.117187,-0.574219 h 3.023438 l 0.316406,0.585937 q -0.410156,1.0429692 -0.65625,1.6054692 -0.246094,0.5625 -0.644531,1.3593751 -0.398438,0.7851562 -0.84375,1.5703125 -0.445313,0.7851562 -1.054688,1.734375 -0.597656,0.9374999 -1.347656,2.0507812 -0.75,1.1015625 -1.769531,2.484375 H 9.6796875 L 9.1992188,-4.7109375 q -0.058594,-0.5742187 -0.1289063,-1.5 -0.058594,-0.9257812 -0.082031,-1.4296875 L 8.859375,-7.6523437 Q 8.2265625,-6.09375 7.1367187,-4.1835937 6.046875,-2.2734375 4.4414062,0.1875 H 2.8710938 L 1.9804687,-8.6367188 Q 1.9101562,-9.3164063 1.8046875,-9.7382813 1.6992187,-10.160156 1.453125,-10.371094 1.2070312,-10.582031 0.64453125,-10.628906 L 0.7734375,-11.203125 H 3.84375 l 0.703125,9.2460938 q 1.6523437,-2.6953125 2.3789062,-4.1015625 0.7382813,-1.40625 1.0898438,-2.4257813 0.3515625,-1.03125 0.5390625,-2.144531 l 0.1289063,-0.574219 h 1.6875002 z m 11.613281,2.14453125 q -1.816407,0 -2.824219,-1.01953125 Q 19.019531,-1.8398437 19.019531,-3.75 q 0,-0.9375 0.28125,-2.1679687 0.363281,-1.6640625 1.21875,-2.9062501 0.855469,-1.2421872 2.109375,-1.8984372 1.253906,-0.667969 2.753906,-0.667969 1.875,0 2.859375,1.03125 0.984375,1.0195312 0.984375,2.9296875 0,1.359375 -0.480468,2.90625 -0.46875,1.546875 -1.300782,2.6015625 -0.820312,1.0546875 -1.96875,1.59375 -1.148437,0.52734375 -2.636718,0.52734375 z M 21.070312,-3.2460938 q 0,1.2890626 0.527344,1.9101563 0.539063,0.609375 1.617188,0.609375 1.148437,0 2.039062,-1.03125 0.890625,-1.03125 1.40625,-2.8828125 0.515625,-1.8632812 0.515625,-3.2695312 0,-1.2656251 -0.492187,-1.8984376 -0.492188,-0.6445312 -1.535157,-0.6445312 -1.21875,0 -2.132812,1.0195312 -0.902344,1.0195313 -1.429688,2.9179688 -0.515625,1.8984375 -0.515625,3.2695312 z M 35.71875,-8.3789063 q 1.148437,-1.5585937 2.203125,-2.2851567 1.066406,-0.726562 2.15625,-0.726562 0.855469,0 1.429687,0.128906 l -0.5625,2.6250002 h -1.207031 q -0.07031,-0.4921875 -0.199219,-0.7617187 -0.128906,-0.2695313 -0.304687,-0.375 -0.175781,-0.1054688 -0.445313,-0.1054688 -0.421875,0 -0.925781,0.3632813 -0.492187,0.3632812 -1.113281,1.1367187 -0.621094,0.7734376 -0.996094,1.4882813 -0.363281,0.7148438 -0.609375,1.8164063 L 34.03125,0 h -2.027344 l 1.699219,-7.4296875 q 0.164062,-0.703125 0.210937,-1.0898438 0.04687,-0.3867187 0.04687,-0.6445312 0,-0.46875 -0.152343,-0.6796875 -0.152344,-0.210938 -0.480469,-0.210938 -0.363281,0 -0.773438,0.304688 -0.398437,0.2929687 -1.101562,1.078125 l -0.667969,-0.65625 q 1.078125,-1.125 1.804688,-1.59375 0.726562,-0.480469 1.605468,-0.480469 0.738282,0 1.160157,0.492188 0.433593,0.480468 0.433593,1.2656247 0,0.5859375 -0.222656,1.2070313 z m 14.414062,5.390625 q -1.125,1.6406251 -2.132812,2.4023438 -1.007813,0.76171875 -2.132813,0.76171875 -1.289062,0 -2.003906,-0.97265625 -0.703125,-0.9726562 -0.703125,-2.7304688 0,-2.0156249 0.785156,-3.8671874 0.796875,-1.8632813 2.179688,-2.9296878 1.382812,-1.078125 3.082031,-1.078125 0.714844,0 1.3125,0.152344 0.609375,0.140625 1.242188,0.503906 l 0.609375,-2.707031 q 0.09375,-0.386719 0.164062,-0.855469 0.07031,-0.46875 0.07031,-0.820312 0,-0.351563 -0.128907,-0.527344 -0.128906,-0.1875 -0.375,-0.269531 -0.234375,-0.08203 -0.855468,-0.117188 l 0.140625,-0.609375 2.941406,-0.105468 h 0.691406 l -2.917969,12.9726557 q -0.257812,1.1484375 -0.257812,1.734375 0,0.4687501 0.152344,0.6796876 0.152343,0.2109375 0.480468,0.2109375 0.351563,0 0.75,-0.28125 0.398438,-0.2929688 1.125,-1.1015626 l 0.667969,0.6562501 Q 53.941406,-0.75 53.203125,-0.28125 52.464844,0.1875 51.609375,0.1875 q -0.726563,0 -1.160156,-0.48046875 -0.433594,-0.48046875 -0.433594,-1.27734375 0,-0.6445313 0.269531,-1.3710938 z m 0.785157,-4.1484374 q 0.175781,-0.84375 0.175781,-1.5937501 0,-0.9140625 -0.386719,-1.3242192 -0.386719,-0.421875 -1.289062,-0.421875 -1.195313,0 -2.144532,0.9726567 -0.949218,0.9609375 -1.5,2.6015626 -0.539062,1.640625 -0.539062,3.2695312 0,1.21875 0.328125,1.828125 0.339844,0.5976563 1.125,0.5976563 0.363281,0 0.738281,-0.1523438 0.375,-0.1640625 0.773438,-0.515625 0.410156,-0.3515625 0.796875,-0.8554688 0.398437,-0.5039062 0.726562,-1.0078125 0.328125,-0.5156249 0.609375,-1.2070312 0.28125,-0.703125 0.480469,-1.6875 z"
         id="text31"
         transform="translate(161.261,445)"
         aria-label="𝑤𝑜𝑟𝑑" />
    </g>
  </g>
</svg>
